<svg width="349" height="2671" viewBox="0 0 349 2671" fill="none" xmlns="http://www.w3.org/2000/svg">
<rect y="54" width="25" height="25" rx="2" fill="#202020" fill-opacity="0.25"/>
<rect y="2646" width="25" height="25" rx="2" fill="#202020" fill-opacity="0.25"/>
<rect y="27" width="25" height="25" rx="2" fill="#202020" fill-opacity="0.25"/>
<rect y="2619" width="25" height="25" rx="2" fill="#202020" fill-opacity="0.25"/>
<rect width="25" height="25" rx="2" fill="#202020" fill-opacity="0.25"/>
<rect y="2592" width="25" height="25" rx="2" fill="#202020" fill-opacity="0.25"/>
<rect x="135" y="54" width="25" height="25" rx="2" fill="#202020" fill-opacity="0.25"/>
<rect x="135" y="2646" width="25" height="25" rx="2" fill="#202020" fill-opacity="0.25"/>
<rect x="135" y="1350" width="25" height="25" rx="2" fill="#202020" fill-opacity="0.25"/>
<rect x="135" y="702" width="25" height="25" rx="2" fill="#202020" fill-opacity="0.25"/>
<rect x="135" y="1998" width="25" height="25" rx="2" fill="#202020" fill-opacity="0.25"/>
<rect x="135" y="378" width="25" height="25" rx="2" fill="#202020" fill-opacity="0.25"/>
<rect x="135" y="1674" width="25" height="25" rx="2" fill="#202020" fill-opacity="0.25"/>
<rect x="135" y="1026" width="25" height="25" rx="2" fill="#202020" fill-opacity="0.25"/>
<rect x="135" y="2322" width="25" height="25" rx="2" fill="#202020" fill-opacity="0.25"/>
<rect x="135" y="216" width="25" height="25" rx="2" fill="#202020" fill-opacity="0.25"/>
<rect x="135" y="1512" width="25" height="25" rx="2" fill="#202020" fill-opacity="0.25"/>
<rect x="135" y="864" width="25" height="25" rx="2" fill="#202020" fill-opacity="0.25"/>
<rect x="135" y="2160" width="25" height="25" rx="2" fill="#202020" fill-opacity="0.25"/>
<rect x="135" y="540" width="25" height="25" rx="2" fill="#202020" fill-opacity="0.25"/>
<rect x="135" y="1836" width="25" height="25" rx="2" fill="#202020" fill-opacity="0.25"/>
<rect x="135" y="1188" width="25" height="25" rx="2" fill="#202020" fill-opacity="0.25"/>
<rect x="135" y="2484" width="25" height="25" rx="2" fill="#202020" fill-opacity="0.25"/>
<rect x="135" y="27" width="25" height="25" rx="2" fill="#202020" fill-opacity="0.25"/>
<rect x="135" y="2619" width="25" height="25" rx="2" fill="#202020" fill-opacity="0.25"/>
<rect x="135" y="1323" width="25" height="25" rx="2" fill="#202020" fill-opacity="0.25"/>
<rect x="135" y="675" width="25" height="25" rx="2" fill="#202020" fill-opacity="0.25"/>
<rect x="135" y="1971" width="25" height="25" rx="2" fill="#202020" fill-opacity="0.25"/>
<rect x="135" y="351" width="25" height="25" rx="2" fill="#202020" fill-opacity="0.25"/>
<rect x="135" y="1647" width="25" height="25" rx="2" fill="#202020" fill-opacity="0.25"/>
<rect x="135" y="999" width="25" height="25" rx="2" fill="#202020" fill-opacity="0.25"/>
<rect x="135" y="2295" width="25" height="25" rx="2" fill="#202020" fill-opacity="0.25"/>
<rect x="135" y="189" width="25" height="25" rx="2" fill="#202020" fill-opacity="0.25"/>
<rect x="135" y="1485" width="25" height="25" rx="2" fill="#202020" fill-opacity="0.25"/>
<rect x="135" y="837" width="25" height="25" rx="2" fill="#202020" fill-opacity="0.25"/>
<rect x="135" y="2133" width="25" height="25" rx="2" fill="#202020" fill-opacity="0.25"/>
<rect x="135" y="513" width="25" height="25" rx="2" fill="#202020" fill-opacity="0.25"/>
<rect x="135" y="1809" width="25" height="25" rx="2" fill="#202020" fill-opacity="0.25"/>
<rect x="135" y="1161" width="25" height="25" rx="2" fill="#202020" fill-opacity="0.25"/>
<rect x="135" y="2457" width="25" height="25" rx="2" fill="#202020" fill-opacity="0.25"/>
<rect x="135" width="25" height="25" rx="2" fill="#202020" fill-opacity="0.25"/>
<rect x="135" y="2592" width="25" height="25" rx="2" fill="#202020" fill-opacity="0.25"/>
<rect x="135" y="1296" width="25" height="25" rx="2" fill="#202020" fill-opacity="0.25"/>
<rect x="135" y="648" width="25" height="25" rx="2" fill="#202020" fill-opacity="0.25"/>
<rect x="135" y="1944" width="25" height="25" rx="2" fill="#202020" fill-opacity="0.25"/>
<rect x="135" y="324" width="25" height="25" rx="2" fill="#202020" fill-opacity="0.25"/>
<rect x="135" y="1620" width="25" height="25" rx="2" fill="#202020" fill-opacity="0.25"/>
<rect x="135" y="972" width="25" height="25" rx="2" fill="#202020" fill-opacity="0.25"/>
<rect x="135" y="2268" width="25" height="25" rx="2" fill="#202020" fill-opacity="0.25"/>
<rect x="135" y="162" width="25" height="25" rx="2" fill="#202020" fill-opacity="0.25"/>
<rect x="135" y="1458" width="25" height="25" rx="2" fill="#202020" fill-opacity="0.25"/>
<rect x="135" y="810" width="25" height="25" rx="2" fill="#202020" fill-opacity="0.25"/>
<rect x="135" y="2106" width="25" height="25" rx="2" fill="#202020" fill-opacity="0.25"/>
<rect x="135" y="486" width="25" height="25" rx="2" fill="#202020" fill-opacity="0.25"/>
<rect x="135" y="1782" width="25" height="25" rx="2" fill="#202020" fill-opacity="0.25"/>
<rect x="135" y="1134" width="25" height="25" rx="2" fill="#202020" fill-opacity="0.25"/>
<rect x="135" y="2430" width="25" height="25" rx="2" fill="#202020" fill-opacity="0.25"/>
<rect x="27" y="54" width="25" height="25" rx="2" fill="#202020" fill-opacity="0.25"/>
<rect x="27" y="2646" width="25" height="25" rx="2" fill="#202020" fill-opacity="0.25"/>
<rect x="27" y="27" width="25" height="25" rx="2" fill="#202020" fill-opacity="0.25"/>
<rect x="27" y="2619" width="25" height="25" rx="2" fill="#202020" fill-opacity="0.25"/>
<rect x="27" width="25" height="25" rx="2" fill="#202020" fill-opacity="0.25"/>
<rect x="27" y="2592" width="25" height="25" rx="2" fill="#202020" fill-opacity="0.25"/>
<rect x="162" y="54" width="25" height="25" rx="2" fill="#202020" fill-opacity="0.25"/>
<rect x="162" y="2646" width="25" height="25" rx="2" fill="#202020" fill-opacity="0.25"/>
<rect x="162" y="1350" width="25" height="25" rx="2" fill="#202020" fill-opacity="0.25"/>
<rect x="162" y="702" width="25" height="25" rx="2" fill="#202020" fill-opacity="0.25"/>
<rect x="162" y="1998" width="25" height="25" rx="2" fill="#202020" fill-opacity="0.25"/>
<rect x="162" y="378" width="25" height="25" rx="2" fill="#202020" fill-opacity="0.25"/>
<rect x="162" y="1674" width="25" height="25" rx="2" fill="#202020" fill-opacity="0.25"/>
<rect x="162" y="1026" width="25" height="25" rx="2" fill="#202020" fill-opacity="0.25"/>
<rect x="162" y="2322" width="25" height="25" rx="2" fill="#202020" fill-opacity="0.25"/>
<rect x="162" y="216" width="25" height="25" rx="2" fill="#202020" fill-opacity="0.25"/>
<rect x="162" y="1512" width="25" height="25" rx="2" fill="#202020" fill-opacity="0.25"/>
<rect x="162" y="864" width="25" height="25" rx="2" fill="#202020" fill-opacity="0.25"/>
<rect x="162" y="2160" width="25" height="25" rx="2" fill="#202020" fill-opacity="0.25"/>
<rect x="162" y="540" width="25" height="25" rx="2" fill="#202020" fill-opacity="0.25"/>
<rect x="162" y="1836" width="25" height="25" rx="2" fill="#202020" fill-opacity="0.25"/>
<rect x="162" y="1188" width="25" height="25" rx="2" fill="#202020" fill-opacity="0.25"/>
<rect x="162" y="2484" width="25" height="25" rx="2" fill="#202020" fill-opacity="0.25"/>
<rect x="162" y="27" width="25" height="25" rx="2" fill="#202020" fill-opacity="0.25"/>
<rect x="162" y="2619" width="25" height="25" rx="2" fill="#202020" fill-opacity="0.25"/>
<rect x="162" y="1323" width="25" height="25" rx="2" fill="#202020" fill-opacity="0.25"/>
<rect x="162" y="675" width="25" height="25" rx="2" fill="#202020" fill-opacity="0.25"/>
<rect x="162" y="1971" width="25" height="25" rx="2" fill="#202020" fill-opacity="0.25"/>
<rect x="162" y="351" width="25" height="25" rx="2" fill="#202020" fill-opacity="0.25"/>
<rect x="162" y="1647" width="25" height="25" rx="2" fill="#202020" fill-opacity="0.25"/>
<rect x="162" y="999" width="25" height="25" rx="2" fill="#202020" fill-opacity="0.25"/>
<rect x="162" y="2295" width="25" height="25" rx="2" fill="#202020" fill-opacity="0.25"/>
<rect x="162" y="189" width="25" height="25" rx="2" fill="#202020" fill-opacity="0.25"/>
<rect x="162" y="1485" width="25" height="25" rx="2" fill="#202020" fill-opacity="0.25"/>
<rect x="162" y="837" width="25" height="25" rx="2" fill="#202020" fill-opacity="0.25"/>
<rect x="162" y="2133" width="25" height="25" rx="2" fill="#202020" fill-opacity="0.25"/>
<rect x="162" y="513" width="25" height="25" rx="2" fill="#202020" fill-opacity="0.25"/>
<rect x="162" y="1809" width="25" height="25" rx="2" fill="#202020" fill-opacity="0.25"/>
<rect x="162" y="1161" width="25" height="25" rx="2" fill="#202020" fill-opacity="0.25"/>
<rect x="162" y="2457" width="25" height="25" rx="2" fill="#202020" fill-opacity="0.25"/>
<rect x="162" width="25" height="25" rx="2" fill="#202020" fill-opacity="0.25"/>
<rect x="162" y="2592" width="25" height="25" rx="2" fill="#202020" fill-opacity="0.25"/>
<rect x="162" y="1296" width="25" height="25" rx="2" fill="#202020" fill-opacity="0.25"/>
<rect x="162" y="648" width="25" height="25" rx="2" fill="#202020" fill-opacity="0.25"/>
<rect x="162" y="1944" width="25" height="25" rx="2" fill="#202020" fill-opacity="0.25"/>
<rect x="162" y="324" width="25" height="25" rx="2" fill="#202020" fill-opacity="0.25"/>
<rect x="162" y="1620" width="25" height="25" rx="2" fill="#202020" fill-opacity="0.25"/>
<rect x="162" y="972" width="25" height="25" rx="2" fill="#202020" fill-opacity="0.25"/>
<rect x="162" y="2268" width="25" height="25" rx="2" fill="#202020" fill-opacity="0.25"/>
<rect x="162" y="162" width="25" height="25" rx="2" fill="#202020" fill-opacity="0.25"/>
<rect x="162" y="1458" width="25" height="25" rx="2" fill="#202020" fill-opacity="0.25"/>
<rect x="162" y="810" width="25" height="25" rx="2" fill="#202020" fill-opacity="0.25"/>
<rect x="162" y="2106" width="25" height="25" rx="2" fill="#202020" fill-opacity="0.25"/>
<rect x="162" y="486" width="25" height="25" rx="2" fill="#202020" fill-opacity="0.25"/>
<rect x="162" y="1782" width="25" height="25" rx="2" fill="#202020" fill-opacity="0.25"/>
<rect x="162" y="1134" width="25" height="25" rx="2" fill="#202020" fill-opacity="0.25"/>
<rect x="162" y="2430" width="25" height="25" rx="2" fill="#202020" fill-opacity="0.25"/>
<rect x="54" y="54" width="25" height="25" rx="2" fill="#202020" fill-opacity="0.25"/>
<rect x="54" y="2646" width="25" height="25" rx="2" fill="#202020" fill-opacity="0.25"/>
<rect x="54" y="27" width="25" height="25" rx="2" fill="#202020" fill-opacity="0.25"/>
<rect x="54" y="2619" width="25" height="25" rx="2" fill="#202020" fill-opacity="0.25"/>
<rect x="54" width="25" height="25" rx="2" fill="#202020" fill-opacity="0.25"/>
<rect x="54" y="2592" width="25" height="25" rx="2" fill="#202020" fill-opacity="0.25"/>
<rect x="189" y="54" width="25" height="25" rx="2" fill="#202020" fill-opacity="0.25"/>
<rect x="189" y="2646" width="25" height="25" rx="2" fill="#202020" fill-opacity="0.25"/>
<rect x="189" y="1350" width="25" height="25" rx="2" fill="#202020" fill-opacity="0.25"/>
<rect x="189" y="702" width="25" height="25" rx="2" fill="#202020" fill-opacity="0.25"/>
<rect x="189" y="1998" width="25" height="25" rx="2" fill="#202020" fill-opacity="0.25"/>
<rect x="189" y="378" width="25" height="25" rx="2" fill="#202020" fill-opacity="0.25"/>
<rect x="189" y="1674" width="25" height="25" rx="2" fill="#202020" fill-opacity="0.25"/>
<rect x="189" y="1026" width="25" height="25" rx="2" fill="#202020" fill-opacity="0.25"/>
<rect x="189" y="2322" width="25" height="25" rx="2" fill="#202020" fill-opacity="0.25"/>
<rect x="189" y="216" width="25" height="25" rx="2" fill="#202020" fill-opacity="0.25"/>
<rect x="189" y="1512" width="25" height="25" rx="2" fill="#202020" fill-opacity="0.25"/>
<rect x="189" y="864" width="25" height="25" rx="2" fill="#202020" fill-opacity="0.25"/>
<rect x="189" y="2160" width="25" height="25" rx="2" fill="#202020" fill-opacity="0.25"/>
<rect x="189" y="540" width="25" height="25" rx="2" fill="#202020" fill-opacity="0.25"/>
<rect x="189" y="1836" width="25" height="25" rx="2" fill="#202020" fill-opacity="0.25"/>
<rect x="189" y="1188" width="25" height="25" rx="2" fill="#202020" fill-opacity="0.25"/>
<rect x="189" y="2484" width="25" height="25" rx="2" fill="#202020" fill-opacity="0.25"/>
<rect x="270" y="54" width="25" height="25" rx="2" fill="#202020" fill-opacity="0.25"/>
<rect x="270" y="2646" width="25" height="25" rx="2" fill="#202020" fill-opacity="0.25"/>
<rect x="135" y="135" width="25" height="25" rx="2" fill="#202020" fill-opacity="0.25"/>
<rect x="135" y="1431" width="25" height="25" rx="2" fill="#202020" fill-opacity="0.25"/>
<rect x="135" y="783" width="25" height="25" rx="2" fill="#202020" fill-opacity="0.25"/>
<rect x="135" y="2079" width="25" height="25" rx="2" fill="#202020" fill-opacity="0.25"/>
<rect x="135" y="459" width="25" height="25" rx="2" fill="#202020" fill-opacity="0.25"/>
<rect x="135" y="1755" width="25" height="25" rx="2" fill="#202020" fill-opacity="0.25"/>
<rect x="135" y="1107" width="25" height="25" rx="2" fill="#202020" fill-opacity="0.25"/>
<rect x="135" y="2403" width="25" height="25" rx="2" fill="#202020" fill-opacity="0.25"/>
<rect x="135" y="297" width="25" height="25" rx="2" fill="#202020" fill-opacity="0.25"/>
<rect x="135" y="1593" width="25" height="25" rx="2" fill="#202020" fill-opacity="0.25"/>
<rect x="135" y="945" width="25" height="25" rx="2" fill="#202020" fill-opacity="0.25"/>
<rect x="135" y="2241" width="25" height="25" rx="2" fill="#202020" fill-opacity="0.25"/>
<rect x="135" y="621" width="25" height="25" rx="2" fill="#202020" fill-opacity="0.25"/>
<rect x="135" y="1917" width="25" height="25" rx="2" fill="#202020" fill-opacity="0.25"/>
<rect x="135" y="1269" width="25" height="25" rx="2" fill="#202020" fill-opacity="0.25"/>
<rect x="135" y="2565" width="25" height="25" rx="2" fill="#202020" fill-opacity="0.25"/>
<rect x="189" y="27" width="25" height="25" rx="2" fill="#202020" fill-opacity="0.25"/>
<rect x="189" y="2619" width="25" height="25" rx="2" fill="#202020" fill-opacity="0.25"/>
<rect x="189" y="1323" width="25" height="25" rx="2" fill="#202020" fill-opacity="0.25"/>
<rect x="189" y="675" width="25" height="25" rx="2" fill="#202020" fill-opacity="0.25"/>
<rect x="189" y="1971" width="25" height="25" rx="2" fill="#202020" fill-opacity="0.25"/>
<rect x="189" y="351" width="25" height="25" rx="2" fill="#202020" fill-opacity="0.25"/>
<rect x="189" y="1647" width="25" height="25" rx="2" fill="#202020" fill-opacity="0.25"/>
<rect x="189" y="999" width="25" height="25" rx="2" fill="#202020" fill-opacity="0.25"/>
<rect x="189" y="2295" width="25" height="25" rx="2" fill="#202020" fill-opacity="0.25"/>
<rect x="189" y="189" width="25" height="25" rx="2" fill="#202020" fill-opacity="0.25"/>
<rect x="189" y="1485" width="25" height="25" rx="2" fill="#202020" fill-opacity="0.25"/>
<rect x="189" y="837" width="25" height="25" rx="2" fill="#202020" fill-opacity="0.25"/>
<rect x="189" y="2133" width="25" height="25" rx="2" fill="#202020" fill-opacity="0.25"/>
<rect x="189" y="513" width="25" height="25" rx="2" fill="#202020" fill-opacity="0.25"/>
<rect x="189" y="1809" width="25" height="25" rx="2" fill="#202020" fill-opacity="0.25"/>
<rect x="189" y="1161" width="25" height="25" rx="2" fill="#202020" fill-opacity="0.25"/>
<rect x="189" y="2457" width="25" height="25" rx="2" fill="#202020" fill-opacity="0.25"/>
<rect x="270" y="27" width="25" height="25" rx="2" fill="#202020" fill-opacity="0.25"/>
<rect x="270" y="2619" width="25" height="25" rx="2" fill="#202020" fill-opacity="0.25"/>
<rect x="135" y="108" width="25" height="25" rx="2" fill="#202020" fill-opacity="0.25"/>
<rect x="135" y="1404" width="25" height="25" rx="2" fill="#202020" fill-opacity="0.25"/>
<rect x="135" y="756" width="25" height="25" rx="2" fill="#202020" fill-opacity="0.25"/>
<rect x="135" y="2052" width="25" height="25" rx="2" fill="#202020" fill-opacity="0.25"/>
<rect x="135" y="432" width="25" height="25" rx="2" fill="#202020" fill-opacity="0.25"/>
<rect x="135" y="1728" width="25" height="25" rx="2" fill="#202020" fill-opacity="0.25"/>
<rect x="135" y="1080" width="25" height="25" rx="2" fill="#202020" fill-opacity="0.25"/>
<rect x="135" y="2376" width="25" height="25" rx="2" fill="#202020" fill-opacity="0.25"/>
<rect x="135" y="270" width="25" height="25" rx="2" fill="#202020" fill-opacity="0.25"/>
<rect x="135" y="1566" width="25" height="25" rx="2" fill="#202020" fill-opacity="0.25"/>
<rect x="135" y="918" width="25" height="25" rx="2" fill="#202020" fill-opacity="0.25"/>
<rect x="135" y="2214" width="25" height="25" rx="2" fill="#202020" fill-opacity="0.25"/>
<rect x="135" y="594" width="25" height="25" rx="2" fill="#202020" fill-opacity="0.25"/>
<rect x="135" y="1890" width="25" height="25" rx="2" fill="#202020" fill-opacity="0.25"/>
<rect x="135" y="1242" width="25" height="25" rx="2" fill="#202020" fill-opacity="0.25"/>
<rect x="135" y="2538" width="25" height="25" rx="2" fill="#202020" fill-opacity="0.25"/>
<rect x="189" width="25" height="25" rx="2" fill="#202020" fill-opacity="0.25"/>
<rect x="189" y="2592" width="25" height="25" rx="2" fill="#202020" fill-opacity="0.25"/>
<rect x="189" y="1296" width="25" height="25" rx="2" fill="#202020" fill-opacity="0.25"/>
<rect x="189" y="648" width="25" height="25" rx="2" fill="#202020" fill-opacity="0.25"/>
<rect x="189" y="1944" width="25" height="25" rx="2" fill="#202020" fill-opacity="0.25"/>
<rect x="189" y="324" width="25" height="25" rx="2" fill="#202020" fill-opacity="0.25"/>
<rect x="189" y="1620" width="25" height="25" rx="2" fill="#202020" fill-opacity="0.25"/>
<rect x="189" y="972" width="25" height="25" rx="2" fill="#202020" fill-opacity="0.25"/>
<rect x="189" y="2268" width="25" height="25" rx="2" fill="#202020" fill-opacity="0.25"/>
<rect x="189" y="162" width="25" height="25" rx="2" fill="#202020" fill-opacity="0.25"/>
<rect x="189" y="1458" width="25" height="25" rx="2" fill="#202020" fill-opacity="0.25"/>
<rect x="189" y="810" width="25" height="25" rx="2" fill="#202020" fill-opacity="0.25"/>
<rect x="189" y="2106" width="25" height="25" rx="2" fill="#202020" fill-opacity="0.25"/>
<rect x="189" y="486" width="25" height="25" rx="2" fill="#202020" fill-opacity="0.25"/>
<rect x="189" y="1782" width="25" height="25" rx="2" fill="#202020" fill-opacity="0.25"/>
<rect x="189" y="1134" width="25" height="25" rx="2" fill="#202020" fill-opacity="0.25"/>
<rect x="189" y="2430" width="25" height="25" rx="2" fill="#202020" fill-opacity="0.25"/>
<rect x="270" width="25" height="25" rx="2" fill="#202020" fill-opacity="0.25"/>
<rect x="270" y="2592" width="25" height="25" rx="2" fill="#202020" fill-opacity="0.25"/>
<rect x="135" y="81" width="25" height="25" rx="2" fill="#202020" fill-opacity="0.25"/>
<rect x="135" y="1377" width="25" height="25" rx="2" fill="#202020" fill-opacity="0.25"/>
<rect x="135" y="729" width="25" height="25" rx="2" fill="#202020" fill-opacity="0.25"/>
<rect x="135" y="2025" width="25" height="25" rx="2" fill="#202020" fill-opacity="0.25"/>
<rect x="135" y="405" width="25" height="25" rx="2" fill="#202020" fill-opacity="0.25"/>
<rect x="135" y="1701" width="25" height="25" rx="2" fill="#202020" fill-opacity="0.25"/>
<rect x="135" y="1053" width="25" height="25" rx="2" fill="#202020" fill-opacity="0.25"/>
<rect x="135" y="2349" width="25" height="25" rx="2" fill="#202020" fill-opacity="0.25"/>
<rect x="135" y="243" width="25" height="25" rx="2" fill="#202020" fill-opacity="0.25"/>
<rect x="135" y="1539" width="25" height="25" rx="2" fill="#202020" fill-opacity="0.25"/>
<rect x="135" y="891" width="25" height="25" rx="2" fill="#202020" fill-opacity="0.25"/>
<rect x="135" y="2187" width="25" height="25" rx="2" fill="#202020" fill-opacity="0.25"/>
<rect x="135" y="567" width="25" height="25" rx="2" fill="#202020" fill-opacity="0.25"/>
<rect x="135" y="1863" width="25" height="25" rx="2" fill="#202020" fill-opacity="0.25"/>
<rect x="135" y="1215" width="25" height="25" rx="2" fill="#202020" fill-opacity="0.25"/>
<rect x="135" y="2511" width="25" height="25" rx="2" fill="#202020" fill-opacity="0.25"/>
<rect x="81" y="54" width="25" height="25" rx="2" fill="#202020" fill-opacity="0.25"/>
<rect x="81" y="2646" width="25" height="25" rx="2" fill="#202020" fill-opacity="0.25"/>
<rect x="81" y="27" width="25" height="25" rx="2" fill="#202020" fill-opacity="0.25"/>
<rect x="81" y="2619" width="25" height="25" rx="2" fill="#202020" fill-opacity="0.25"/>
<rect x="81" width="25" height="25" rx="2" fill="#202020" fill-opacity="0.25"/>
<rect x="81" y="2592" width="25" height="25" rx="2" fill="#202020" fill-opacity="0.25"/>
<rect x="216" y="54" width="25" height="25" rx="2" fill="#202020" fill-opacity="0.25"/>
<rect x="216" y="2646" width="25" height="25" rx="2" fill="#202020" fill-opacity="0.25"/>
<rect x="297" y="54" width="25" height="25" rx="2" fill="#202020" fill-opacity="0.25"/>
<rect x="297" y="2646" width="25" height="25" rx="2" fill="#202020" fill-opacity="0.25"/>
<rect x="162" y="135" width="25" height="25" rx="2" fill="#202020" fill-opacity="0.25"/>
<rect x="162" y="1431" width="25" height="25" rx="2" fill="#202020" fill-opacity="0.25"/>
<rect x="162" y="783" width="25" height="25" rx="2" fill="#202020" fill-opacity="0.25"/>
<rect x="162" y="2079" width="25" height="25" rx="2" fill="#202020" fill-opacity="0.25"/>
<rect x="162" y="459" width="25" height="25" rx="2" fill="#202020" fill-opacity="0.25"/>
<rect x="162" y="1755" width="25" height="25" rx="2" fill="#202020" fill-opacity="0.25"/>
<rect x="162" y="1107" width="25" height="25" rx="2" fill="#202020" fill-opacity="0.25"/>
<rect x="162" y="2403" width="25" height="25" rx="2" fill="#202020" fill-opacity="0.25"/>
<rect x="162" y="297" width="25" height="25" rx="2" fill="#202020" fill-opacity="0.25"/>
<rect x="162" y="1593" width="25" height="25" rx="2" fill="#202020" fill-opacity="0.25"/>
<rect x="162" y="945" width="25" height="25" rx="2" fill="#202020" fill-opacity="0.25"/>
<rect x="162" y="2241" width="25" height="25" rx="2" fill="#202020" fill-opacity="0.25"/>
<rect x="162" y="621" width="25" height="25" rx="2" fill="#202020" fill-opacity="0.25"/>
<rect x="162" y="1917" width="25" height="25" rx="2" fill="#202020" fill-opacity="0.25"/>
<rect x="162" y="1269" width="25" height="25" rx="2" fill="#202020" fill-opacity="0.25"/>
<rect x="162" y="2565" width="25" height="25" rx="2" fill="#202020" fill-opacity="0.25"/>
<rect x="216" y="27" width="25" height="25" rx="2" fill="#202020" fill-opacity="0.25"/>
<rect x="216" y="2619" width="25" height="25" rx="2" fill="#202020" fill-opacity="0.25"/>
<rect x="297" y="27" width="25" height="25" rx="2" fill="#202020" fill-opacity="0.25"/>
<rect x="297" y="2619" width="25" height="25" rx="2" fill="#202020" fill-opacity="0.25"/>
<rect x="162" y="108" width="25" height="25" rx="2" fill="#202020" fill-opacity="0.25"/>
<rect x="162" y="1404" width="25" height="25" rx="2" fill="#202020" fill-opacity="0.25"/>
<rect x="162" y="756" width="25" height="25" rx="2" fill="#202020" fill-opacity="0.25"/>
<rect x="162" y="2052" width="25" height="25" rx="2" fill="#202020" fill-opacity="0.25"/>
<rect x="162" y="432" width="25" height="25" rx="2" fill="#202020" fill-opacity="0.25"/>
<rect x="162" y="1728" width="25" height="25" rx="2" fill="#202020" fill-opacity="0.25"/>
<rect x="162" y="1080" width="25" height="25" rx="2" fill="#202020" fill-opacity="0.25"/>
<rect x="162" y="2376" width="25" height="25" rx="2" fill="#202020" fill-opacity="0.25"/>
<rect x="162" y="270" width="25" height="25" rx="2" fill="#202020" fill-opacity="0.25"/>
<rect x="162" y="1566" width="25" height="25" rx="2" fill="#202020" fill-opacity="0.25"/>
<rect x="162" y="918" width="25" height="25" rx="2" fill="#202020" fill-opacity="0.25"/>
<rect x="162" y="2214" width="25" height="25" rx="2" fill="#202020" fill-opacity="0.25"/>
<rect x="162" y="594" width="25" height="25" rx="2" fill="#202020" fill-opacity="0.25"/>
<rect x="162" y="1890" width="25" height="25" rx="2" fill="#202020" fill-opacity="0.25"/>
<rect x="162" y="1242" width="25" height="25" rx="2" fill="#202020" fill-opacity="0.25"/>
<rect x="162" y="2538" width="25" height="25" rx="2" fill="#202020" fill-opacity="0.25"/>
<rect x="216" width="25" height="25" rx="2" fill="#202020" fill-opacity="0.25"/>
<rect x="216" y="2592" width="25" height="25" rx="2" fill="#202020" fill-opacity="0.25"/>
<rect x="297" width="25" height="25" rx="2" fill="#202020" fill-opacity="0.25"/>
<rect x="297" y="2592" width="25" height="25" rx="2" fill="#202020" fill-opacity="0.25"/>
<rect x="162" y="81" width="25" height="25" rx="2" fill="#202020" fill-opacity="0.25"/>
<rect x="162" y="1377" width="25" height="25" rx="2" fill="#202020" fill-opacity="0.25"/>
<rect x="162" y="729" width="25" height="25" rx="2" fill="#202020" fill-opacity="0.25"/>
<rect x="162" y="2025" width="25" height="25" rx="2" fill="#202020" fill-opacity="0.25"/>
<rect x="162" y="405" width="25" height="25" rx="2" fill="#202020" fill-opacity="0.25"/>
<rect x="162" y="1701" width="25" height="25" rx="2" fill="#202020" fill-opacity="0.25"/>
<rect x="162" y="1053" width="25" height="25" rx="2" fill="#202020" fill-opacity="0.25"/>
<rect x="162" y="2349" width="25" height="25" rx="2" fill="#202020" fill-opacity="0.25"/>
<rect x="162" y="243" width="25" height="25" rx="2" fill="#202020" fill-opacity="0.25"/>
<rect x="162" y="1539" width="25" height="25" rx="2" fill="#202020" fill-opacity="0.25"/>
<rect x="162" y="891" width="25" height="25" rx="2" fill="#202020" fill-opacity="0.25"/>
<rect x="162" y="2187" width="25" height="25" rx="2" fill="#202020" fill-opacity="0.25"/>
<rect x="162" y="567" width="25" height="25" rx="2" fill="#202020" fill-opacity="0.25"/>
<rect x="162" y="1863" width="25" height="25" rx="2" fill="#202020" fill-opacity="0.25"/>
<rect x="162" y="1215" width="25" height="25" rx="2" fill="#202020" fill-opacity="0.25"/>
<rect x="162" y="2511" width="25" height="25" rx="2" fill="#202020" fill-opacity="0.25"/>
<rect x="108" y="54" width="25" height="25" rx="2" fill="#202020" fill-opacity="0.25"/>
<rect x="108" y="2646" width="25" height="25" rx="2" fill="#202020" fill-opacity="0.25"/>
<rect x="108" y="27" width="25" height="25" rx="2" fill="#202020" fill-opacity="0.25"/>
<rect x="108" y="2619" width="25" height="25" rx="2" fill="#202020" fill-opacity="0.25"/>
<rect x="108" width="25" height="25" rx="2" fill="#202020" fill-opacity="0.25"/>
<rect x="108" y="2592" width="25" height="25" rx="2" fill="#202020" fill-opacity="0.25"/>
<rect x="243" y="54" width="25" height="25" rx="2" fill="#202020" fill-opacity="0.25"/>
<rect x="243" y="2646" width="25" height="25" rx="2" fill="#202020" fill-opacity="0.25"/>
<rect x="324" y="54" width="25" height="25" rx="2" fill="#202020" fill-opacity="0.25"/>
<rect x="324" y="2646" width="25" height="25" rx="2" fill="#202020" fill-opacity="0.25"/>
<rect x="189" y="135" width="25" height="25" rx="2" fill="#202020" fill-opacity="0.25"/>
<rect x="189" y="1431" width="25" height="25" rx="2" fill="#202020" fill-opacity="0.25"/>
<rect x="189" y="783" width="25" height="25" rx="2" fill="#202020" fill-opacity="0.25"/>
<rect x="189" y="2079" width="25" height="25" rx="2" fill="#202020" fill-opacity="0.25"/>
<rect x="189" y="459" width="25" height="25" rx="2" fill="#202020" fill-opacity="0.25"/>
<rect x="189" y="1755" width="25" height="25" rx="2" fill="#202020" fill-opacity="0.25"/>
<rect x="189" y="1107" width="25" height="25" rx="2" fill="#202020" fill-opacity="0.25"/>
<rect x="189" y="2403" width="25" height="25" rx="2" fill="#202020" fill-opacity="0.25"/>
<rect x="189" y="297" width="25" height="25" rx="2" fill="#202020" fill-opacity="0.25"/>
<rect x="189" y="1593" width="25" height="25" rx="2" fill="#202020" fill-opacity="0.25"/>
<rect x="189" y="945" width="25" height="25" rx="2" fill="#202020" fill-opacity="0.25"/>
<rect x="189" y="2241" width="25" height="25" rx="2" fill="#202020" fill-opacity="0.25"/>
<rect x="189" y="621" width="25" height="25" rx="2" fill="#202020" fill-opacity="0.25"/>
<rect x="189" y="1917" width="25" height="25" rx="2" fill="#202020" fill-opacity="0.25"/>
<rect x="189" y="1269" width="25" height="25" rx="2" fill="#202020" fill-opacity="0.25"/>
<rect x="189" y="2565" width="25" height="25" rx="2" fill="#202020" fill-opacity="0.25"/>
<rect x="243" y="27" width="25" height="25" rx="2" fill="#202020" fill-opacity="0.25"/>
<rect x="243" y="2619" width="25" height="25" rx="2" fill="#202020" fill-opacity="0.25"/>
<rect x="324" y="27" width="25" height="25" rx="2" fill="#202020" fill-opacity="0.25"/>
<rect x="324" y="2619" width="25" height="25" rx="2" fill="#202020" fill-opacity="0.25"/>
<rect x="189" y="108" width="25" height="25" rx="2" fill="#202020" fill-opacity="0.25"/>
<rect x="189" y="1404" width="25" height="25" rx="2" fill="#202020" fill-opacity="0.25"/>
<rect x="189" y="756" width="25" height="25" rx="2" fill="#202020" fill-opacity="0.25"/>
<rect x="189" y="2052" width="25" height="25" rx="2" fill="#202020" fill-opacity="0.25"/>
<rect x="189" y="432" width="25" height="25" rx="2" fill="#202020" fill-opacity="0.25"/>
<rect x="189" y="1728" width="25" height="25" rx="2" fill="#202020" fill-opacity="0.25"/>
<rect x="189" y="1080" width="25" height="25" rx="2" fill="#202020" fill-opacity="0.25"/>
<rect x="189" y="2376" width="25" height="25" rx="2" fill="#202020" fill-opacity="0.25"/>
<rect x="189" y="270" width="25" height="25" rx="2" fill="#202020" fill-opacity="0.25"/>
<rect x="189" y="1566" width="25" height="25" rx="2" fill="#202020" fill-opacity="0.25"/>
<rect x="189" y="918" width="25" height="25" rx="2" fill="#202020" fill-opacity="0.25"/>
<rect x="189" y="2214" width="25" height="25" rx="2" fill="#202020" fill-opacity="0.25"/>
<rect x="189" y="594" width="25" height="25" rx="2" fill="#202020" fill-opacity="0.25"/>
<rect x="189" y="1890" width="25" height="25" rx="2" fill="#202020" fill-opacity="0.25"/>
<rect x="189" y="1242" width="25" height="25" rx="2" fill="#202020" fill-opacity="0.25"/>
<rect x="189" y="2538" width="25" height="25" rx="2" fill="#202020" fill-opacity="0.25"/>
<rect x="243" width="25" height="25" rx="2" fill="#202020" fill-opacity="0.25"/>
<rect x="243" y="2592" width="25" height="25" rx="2" fill="#202020" fill-opacity="0.25"/>
<rect x="324" width="25" height="25" rx="2" fill="#202020" fill-opacity="0.25"/>
<rect x="324" y="2592" width="25" height="25" rx="2" fill="#202020" fill-opacity="0.25"/>
<rect x="189" y="81" width="25" height="25" rx="2" fill="#202020" fill-opacity="0.25"/>
<rect x="189" y="1377" width="25" height="25" rx="2" fill="#202020" fill-opacity="0.25"/>
<rect x="189" y="729" width="25" height="25" rx="2" fill="#202020" fill-opacity="0.25"/>
<rect x="189" y="2025" width="25" height="25" rx="2" fill="#202020" fill-opacity="0.25"/>
<rect x="189" y="405" width="25" height="25" rx="2" fill="#202020" fill-opacity="0.25"/>
<rect x="189" y="1701" width="25" height="25" rx="2" fill="#202020" fill-opacity="0.25"/>
<rect x="189" y="1053" width="25" height="25" rx="2" fill="#202020" fill-opacity="0.25"/>
<rect x="189" y="2349" width="25" height="25" rx="2" fill="#202020" fill-opacity="0.25"/>
<rect x="189" y="243" width="25" height="25" rx="2" fill="#202020" fill-opacity="0.25"/>
<rect x="189" y="1539" width="25" height="25" rx="2" fill="#202020" fill-opacity="0.25"/>
<rect x="189" y="891" width="25" height="25" rx="2" fill="#202020" fill-opacity="0.25"/>
<rect x="189" y="2187" width="25" height="25" rx="2" fill="#202020" fill-opacity="0.25"/>
<rect x="189" y="567" width="25" height="25" rx="2" fill="#202020" fill-opacity="0.25"/>
<rect x="189" y="1863" width="25" height="25" rx="2" fill="#202020" fill-opacity="0.25"/>
<rect x="189" y="1215" width="25" height="25" rx="2" fill="#202020" fill-opacity="0.25"/>
<rect x="189" y="2511" width="25" height="25" rx="2" fill="#202020" fill-opacity="0.25"/>
</svg>
