<svg id="visual" viewBox="0 0 900 600" width="900" height="600" xmlns="http://www.w3.org/2000/svg" xmlns:xlink="http://www.w3.org/1999/xlink" version="1.1"><rect x="0" y="0" width="900" height="600" fill="#ffffff"></rect><path d="M0 415L21.5 424.5C43 434 86 453 128.8 454.3C171.7 455.7 214.3 439.3 257.2 434.5C300 429.7 343 436.3 385.8 450.5C428.7 464.7 471.3 486.3 514.2 496.2C557 506 600 504 642.8 499.5C685.7 495 728.3 488 771.2 480.5C814 473 857 465 878.5 461L900 457L900 601L878.5 601C857 601 814 601 771.2 601C728.3 601 685.7 601 642.8 601C600 601 557 601 514.2 601C471.3 601 428.7 601 385.8 601C343 601 300 601 257.2 601C214.3 601 171.7 601 128.8 601C86 601 43 601 21.5 601L0 601Z" fill="#000000" stroke-linecap="round" stroke-linejoin="miter"></path></svg>