<svg id="visual" viewBox="0 0 1447 300" width="1447" height="300" xmlns="http://www.w3.org/2000/svg" xmlns:xlink="http://www.w3.org/1999/xlink" version="1.1"><rect x="0" y="0" width="1447" height="300" fill="#ffffff"></rect><path d="M0 155L34.5 151.2C69 147.3 138 139.7 206.8 139.3C275.7 139 344.3 146 413.2 153.8C482 161.7 551 170.3 620 166.8C689 163.3 758 147.7 827 143.2C896 138.7 965 145.3 1033.8 151.5C1102.7 157.7 1171.3 163.3 1240.2 163.5C1309 163.7 1378 158.3 1412.5 155.7L1447 153L1447 0L1412.5 0C1378 0 1309 0 1240.2 0C1171.3 0 1102.7 0 1033.8 0C965 0 896 0 827 0C758 0 689 0 620 0C551 0 482 0 413.2 0C344.3 0 275.7 0 206.8 0C138 0 69 0 34.5 0L0 0Z" fill="#FF3B3E" stroke-linecap="round" stroke-linejoin="miter"></path></svg>