<svg id="visual" viewBox="0 0 900 600" width="900" height="600" xmlns="http://www.w3.org/2000/svg" xmlns:xlink="http://www.w3.org/1999/xlink" version="1.1"><rect x="0" y="0" width="900" height="600" fill="#ffffff"></rect><path d="M0 134L30 139.5C60 145 120 156 180 159.2C240 162.3 300 157.7 360 147.8C420 138 480 123 540 113.2C600 103.3 660 98.7 720 100.3C780 102 840 110 870 114L900 118L900 0L870 0C840 0 780 0 720 0C660 0 600 0 540 0C480 0 420 0 360 0C300 0 240 0 180 0C120 0 60 0 30 0L0 0Z" fill="#FF3B3F" stroke-linecap="round" stroke-linejoin="miter"></path></svg>