<svg width="328" height="20" viewBox="0 0 328 20" fill="none" xmlns="http://www.w3.org/2000/svg">
<rect y="9" width="328" height="2" fill="#202020" fill-opacity="0.9"/>
<path d="M9.5 1H3.5C2.67157 1 2 1.67157 2 2.5V17.5C2 18.3284 2.67157 19 3.5 19H9.5C10.3284 19 11 18.3284 11 17.5V2.5C11 1.67157 10.3284 1 9.5 1Z" fill="white" stroke="#202020" stroke-width="0.75"/>
<path d="M219.5 1H213.5C212.672 1 212 1.67157 212 2.5V17.5C212 18.3284 212.672 19 213.5 19H219.5C220.328 19 221 18.3284 221 17.5V2.5C221 1.67157 220.328 1 219.5 1Z" fill="white" stroke="#202020" stroke-width="0.75"/>
<path d="M19.9999 1H13.9999C13.1715 1 12.4999 1.67157 12.4999 2.5V17.5C12.4999 18.3284 13.1715 19 13.9999 19H19.9999C20.8284 19 21.4999 18.3284 21.4999 17.5V2.5C21.4999 1.67157 20.8284 1 19.9999 1Z" fill="#FF5757" stroke="#202020" stroke-width="0.75"/>
<path d="M230 1H224C223.172 1 222.5 1.67157 222.5 2.5V17.5C222.5 18.3284 223.172 19 224 19H230C230.828 19 231.5 18.3284 231.5 17.5V2.5C231.5 1.67157 230.828 1 230 1Z" fill="#FF5757" stroke="#202020" stroke-width="0.75"/>
<path d="M30.5001 1H24.5001C23.6716 1 23.0001 1.67157 23.0001 2.5V17.5C23.0001 18.3284 23.6716 19 24.5001 19H30.5001C31.3285 19 32.0001 18.3284 32.0001 17.5V2.5C32.0001 1.67157 31.3285 1 30.5001 1Z" fill="#FF5757" stroke="black" stroke-width="0.75"/>
<path d="M240.5 1H234.5C233.672 1 233 1.67157 233 2.5V17.5C233 18.3284 233.672 19 234.5 19H240.5C241.328 19 242 18.3284 242 17.5V2.5C242 1.67157 241.328 1 240.5 1Z" fill="#FF5757" stroke="black" stroke-width="0.75"/>
<path d="M41 1H35C34.1716 1 33.5 1.67157 33.5 2.5V17.5C33.5 18.3284 34.1716 19 35 19H41C41.8284 19 42.5 18.3284 42.5 17.5V2.5C42.5 1.67157 41.8284 1 41 1Z" fill="#FF5757" stroke="black" stroke-width="0.75"/>
<path d="M251 1H245C244.172 1 243.5 1.67157 243.5 2.5V17.5C243.5 18.3284 244.172 19 245 19H251C251.828 19 252.5 18.3284 252.5 17.5V2.5C252.5 1.67157 251.828 1 251 1Z" fill="#FF5757" stroke="black" stroke-width="0.75"/>
<path d="M51.4999 1H45.4999C44.6715 1 43.9999 1.67157 43.9999 2.5V17.5C43.9999 18.3284 44.6715 19 45.4999 19H51.4999C52.3284 19 52.9999 18.3284 52.9999 17.5V2.5C52.9999 1.67157 52.3284 1 51.4999 1Z" fill="white" stroke="black" stroke-width="0.75"/>
<path d="M261.5 1H255.5C254.672 1 254 1.67157 254 2.5V17.5C254 18.3284 254.672 19 255.5 19H261.5C262.328 19 263 18.3284 263 17.5V2.5C263 1.67157 262.328 1 261.5 1Z" fill="white" stroke="black" stroke-width="0.75"/>
<path d="M62.0001 1H56.0001C55.1716 1 54.5001 1.67157 54.5001 2.5V17.5C54.5001 18.3284 55.1716 19 56.0001 19H62.0001C62.8285 19 63.5001 18.3284 63.5001 17.5V2.5C63.5001 1.67157 62.8285 1 62.0001 1Z" fill="white" stroke="black" stroke-width="0.75"/>
<path d="M272 1H266C265.172 1 264.5 1.67157 264.5 2.5V17.5C264.5 18.3284 265.172 19 266 19H272C272.828 19 273.5 18.3284 273.5 17.5V2.5C273.5 1.67157 272.828 1 272 1Z" fill="white" stroke="black" stroke-width="0.75"/>
<path d="M72.5 1H66.5C65.6716 1 65 1.67157 65 2.5V17.5C65 18.3284 65.6716 19 66.5 19H72.5C73.3284 19 74 18.3284 74 17.5V2.5C74 1.67157 73.3284 1 72.5 1Z" fill="white" stroke="black" stroke-width="0.75"/>
<path d="M282.5 1H276.5C275.672 1 275 1.67157 275 2.5V17.5C275 18.3284 275.672 19 276.5 19H282.5C283.328 19 284 18.3284 284 17.5V2.5C284 1.67157 283.328 1 282.5 1Z" fill="white" stroke="black" stroke-width="0.75"/>
<path d="M83 1H77C76.1716 1 75.5 1.67157 75.5 2.5V17.5C75.5 18.3284 76.1716 19 77 19H83C83.8284 19 84.5 18.3284 84.5 17.5V2.5C84.5 1.67157 83.8284 1 83 1Z" fill="#FF5757" stroke="black" stroke-width="0.75"/>
<path d="M293 1H287C286.172 1 285.5 1.67157 285.5 2.5V17.5C285.5 18.3284 286.172 19 287 19H293C293.828 19 294.5 18.3284 294.5 17.5V2.5C294.5 1.67157 293.828 1 293 1Z" fill="#FF5757" stroke="black" stroke-width="0.75"/>
<path d="M93.5 1H87.5C86.6716 1 86 1.67157 86 2.5V17.5C86 18.3284 86.6716 19 87.5 19H93.5C94.3284 19 95 18.3284 95 17.5V2.5C95 1.67157 94.3284 1 93.5 1Z" fill="#FF5757" stroke="black" stroke-width="0.75"/>
<path d="M303.5 1H297.5C296.672 1 296 1.67157 296 2.5V17.5C296 18.3284 296.672 19 297.5 19H303.5C304.328 19 305 18.3284 305 17.5V2.5C305 1.67157 304.328 1 303.5 1Z" fill="#FF5757" stroke="black" stroke-width="0.75"/>
<path d="M104 1H98C97.1716 1 96.5 1.67157 96.5 2.5V17.5C96.5 18.3284 97.1716 19 98 19H104C104.828 19 105.5 18.3284 105.5 17.5V2.5C105.5 1.67157 104.828 1 104 1Z" fill="#FF5757" stroke="black" stroke-width="0.75"/>
<path d="M314 1H308C307.172 1 306.5 1.67157 306.5 2.5V17.5C306.5 18.3284 307.172 19 308 19H314C314.828 19 315.5 18.3284 315.5 17.5V2.5C315.5 1.67157 314.828 1 314 1Z" fill="#FF5757" stroke="black" stroke-width="0.75"/>
<path d="M114.5 1H108.5C107.672 1 107 1.67157 107 2.5V17.5C107 18.3284 107.672 19 108.5 19H114.5C115.328 19 116 18.3284 116 17.5V2.5C116 1.67157 115.328 1 114.5 1Z" fill="white" stroke="black" stroke-width="0.75"/>
<path d="M324.5 1H318.5C317.672 1 317 1.67157 317 2.5V17.5C317 18.3284 317.672 19 318.5 19H324.5C325.328 19 326 18.3284 326 17.5V2.5C326 1.67157 325.328 1 324.5 1Z" fill="white" stroke="black" stroke-width="0.75"/>
<path d="M125 1H119C118.172 1 117.5 1.67157 117.5 2.5V17.5C117.5 18.3284 118.172 19 119 19H125C125.828 19 126.5 18.3284 126.5 17.5V2.5C126.5 1.67157 125.828 1 125 1Z" fill="white" stroke="black" stroke-width="0.75"/>
<path d="M135.5 1H129.5C128.672 1 128 1.67157 128 2.5V17.5C128 18.3284 128.672 19 129.5 19H135.5C136.328 19 137 18.3284 137 17.5V2.5C137 1.67157 136.328 1 135.5 1Z" fill="white" stroke="black" stroke-width="0.75"/>
<path d="M146 1H140C139.172 1 138.5 1.67157 138.5 2.5V17.5C138.5 18.3284 139.172 19 140 19H146C146.828 19 147.5 18.3284 147.5 17.5V2.5C147.5 1.67157 146.828 1 146 1Z" fill="#FF5757" stroke="black" stroke-width="0.75"/>
<path d="M156.5 1H150.5C149.672 1 149 1.67157 149 2.5V17.5C149 18.3284 149.672 19 150.5 19H156.5C157.328 19 158 18.3284 158 17.5V2.5C158 1.67157 157.328 1 156.5 1Z" fill="#FF5757" stroke="black" stroke-width="0.75"/>
<path d="M167 1H161C160.172 1 159.5 1.67157 159.5 2.5V17.5C159.5 18.3284 160.172 19 161 19H167C167.828 19 168.5 18.3284 168.5 17.5V2.5C168.5 1.67157 167.828 1 167 1Z" fill="#FF5757" stroke="black" stroke-width="0.75"/>
<path d="M177.5 1H171.5C170.672 1 170 1.67157 170 2.5V17.5C170 18.3284 170.672 19 171.5 19H177.5C178.328 19 179 18.3284 179 17.5V2.5C179 1.67157 178.328 1 177.5 1Z" fill="white" stroke="black" stroke-width="0.75"/>
<path d="M188 1H182C181.172 1 180.5 1.67157 180.5 2.5V17.5C180.5 18.3284 181.172 19 182 19H188C188.828 19 189.5 18.3284 189.5 17.5V2.5C189.5 1.67157 188.828 1 188 1Z" fill="white" stroke="black" stroke-width="0.75"/>
<path d="M198.5 1H192.5C191.672 1 191 1.67157 191 2.5V17.5C191 18.3284 191.672 19 192.5 19H198.5C199.328 19 200 18.3284 200 17.5V2.5C200 1.67157 199.328 1 198.5 1Z" fill="white" stroke="black" stroke-width="0.75"/>
<path d="M209 1H203C202.172 1 201.5 1.67157 201.5 2.5V17.5C201.5 18.3284 202.172 19 203 19H209C209.828 19 210.5 18.3284 210.5 17.5V2.5C210.5 1.67157 209.828 1 209 1Z" fill="#FF5757" stroke="black" stroke-width="0.75"/>
</svg>
