<svg width="423" height="18" viewBox="0 0 423 18" fill="none" xmlns="http://www.w3.org/2000/svg">
<rect y="8" width="423" height="2" fill="#202020" fill-opacity="0.9"/>
<path d="M3.5 0.375H9.5C10.1213 0.375 10.625 0.878679 10.625 1.5V16.5C10.625 17.1213 10.1213 17.625 9.5 17.625H3.5C2.87868 17.625 2.375 17.1213 2.375 16.5V1.5C2.375 0.87868 2.87868 0.375 3.5 0.375Z" fill="white" stroke="#202020" stroke-width="0.75"/>
<path d="M213.5 0.375H219.5C220.121 0.375 220.625 0.878679 220.625 1.5V16.5C220.625 17.1213 220.121 17.625 219.5 17.625H213.5C212.879 17.625 212.375 17.1213 212.375 16.5V1.5C212.375 0.87868 212.879 0.375 213.5 0.375Z" fill="white" stroke="#202020" stroke-width="0.75"/>
<path d="M13.9999 0.375H19.9999C20.6213 0.375 21.1249 0.878679 21.1249 1.5V16.5C21.1249 17.1213 20.6213 17.625 19.9999 17.625H13.9999C13.3786 17.625 12.8749 17.1213 12.8749 16.5V1.5C12.8749 0.87868 13.3786 0.375 13.9999 0.375Z" fill="#FF5757" stroke="#202020" stroke-width="0.75"/>
<path d="M224 0.375H230C230.621 0.375 231.125 0.878679 231.125 1.5V16.5C231.125 17.1213 230.621 17.625 230 17.625H224C223.379 17.625 222.875 17.1213 222.875 16.5V1.5C222.875 0.87868 223.379 0.375 224 0.375Z" fill="#FF5757" stroke="#202020" stroke-width="0.75"/>
<path d="M24.5001 0.375H30.5001C31.1214 0.375 31.6251 0.878679 31.6251 1.5V16.5C31.6251 17.1213 31.1214 17.625 30.5001 17.625H24.5001C23.8787 17.625 23.3751 17.1213 23.3751 16.5V1.5C23.3751 0.87868 23.8787 0.375 24.5001 0.375Z" fill="#FF5757" stroke="black" stroke-width="0.75"/>
<path d="M234.5 0.375H240.5C241.121 0.375 241.625 0.878679 241.625 1.5V16.5C241.625 17.1213 241.121 17.625 240.5 17.625H234.5C233.879 17.625 233.375 17.1213 233.375 16.5V1.5C233.375 0.87868 233.879 0.375 234.5 0.375Z" fill="#FF5757" stroke="black" stroke-width="0.75"/>
<path d="M35 0.375H41C41.6213 0.375 42.125 0.878679 42.125 1.5V16.5C42.125 17.1213 41.6213 17.625 41 17.625H35C34.3787 17.625 33.875 17.1213 33.875 16.5V1.5C33.875 0.87868 34.3787 0.375 35 0.375Z" fill="#FF5757" stroke="black" stroke-width="0.75"/>
<path d="M245 0.375H251C251.621 0.375 252.125 0.878679 252.125 1.5V16.5C252.125 17.1213 251.621 17.625 251 17.625H245C244.379 17.625 243.875 17.1213 243.875 16.5V1.5C243.875 0.87868 244.379 0.375 245 0.375Z" fill="#FF5757" stroke="black" stroke-width="0.75"/>
<path d="M45.4999 0.375H51.4999C52.1213 0.375 52.6249 0.878679 52.6249 1.5V16.5C52.6249 17.1213 52.1213 17.625 51.4999 17.625H45.4999C44.8786 17.625 44.3749 17.1213 44.3749 16.5V1.5C44.3749 0.87868 44.8786 0.375 45.4999 0.375Z" fill="white" stroke="black" stroke-width="0.75"/>
<path d="M255.5 0.375H261.5C262.121 0.375 262.625 0.878679 262.625 1.5V16.5C262.625 17.1213 262.121 17.625 261.5 17.625H255.5C254.879 17.625 254.375 17.1213 254.375 16.5V1.5C254.375 0.87868 254.879 0.375 255.5 0.375Z" fill="white" stroke="black" stroke-width="0.75"/>
<path d="M56.0001 0.375H62.0001C62.6214 0.375 63.1251 0.878679 63.1251 1.5V16.5C63.1251 17.1213 62.6214 17.625 62.0001 17.625H56.0001C55.3787 17.625 54.8751 17.1213 54.8751 16.5V1.5C54.8751 0.87868 55.3787 0.375 56.0001 0.375Z" fill="white" stroke="black" stroke-width="0.75"/>
<path d="M266 0.375H272C272.621 0.375 273.125 0.878679 273.125 1.5V16.5C273.125 17.1213 272.621 17.625 272 17.625H266C265.379 17.625 264.875 17.1213 264.875 16.5V1.5C264.875 0.87868 265.379 0.375 266 0.375Z" fill="white" stroke="black" stroke-width="0.75"/>
<path d="M66.5 0.375H72.5C73.1213 0.375 73.625 0.87868 73.625 1.5V16.5C73.625 17.1213 73.1213 17.625 72.5 17.625H66.5C65.8787 17.625 65.375 17.1213 65.375 16.5V1.5C65.375 0.87868 65.8787 0.375 66.5 0.375Z" fill="white" stroke="black" stroke-width="0.75"/>
<path d="M276.5 0.375H282.5C283.121 0.375 283.625 0.87868 283.625 1.5V16.5C283.625 17.1213 283.121 17.625 282.5 17.625H276.5C275.879 17.625 275.375 17.1213 275.375 16.5V1.5C275.375 0.87868 275.879 0.375 276.5 0.375Z" fill="white" stroke="black" stroke-width="0.75"/>
<path d="M77 0.375H83C83.6213 0.375 84.125 0.878679 84.125 1.5V16.5C84.125 17.1213 83.6213 17.625 83 17.625H77C76.3787 17.625 75.875 17.1213 75.875 16.5V1.5C75.875 0.87868 76.3787 0.375 77 0.375Z" fill="#FF5757" stroke="black" stroke-width="0.75"/>
<path d="M287 0.375H293C293.621 0.375 294.125 0.878679 294.125 1.5V16.5C294.125 17.1213 293.621 17.625 293 17.625H287C286.379 17.625 285.875 17.1213 285.875 16.5V1.5C285.875 0.87868 286.379 0.375 287 0.375Z" fill="#FF5757" stroke="black" stroke-width="0.75"/>
<path d="M87.5 0.375H93.5C94.1213 0.375 94.625 0.878679 94.625 1.5V16.5C94.625 17.1213 94.1213 17.625 93.5 17.625H87.5C86.8787 17.625 86.375 17.1213 86.375 16.5V1.5C86.375 0.87868 86.8787 0.375 87.5 0.375Z" fill="#FF5757" stroke="black" stroke-width="0.75"/>
<path d="M297.5 0.375H303.5C304.121 0.375 304.625 0.878679 304.625 1.5V16.5C304.625 17.1213 304.121 17.625 303.5 17.625H297.5C296.879 17.625 296.375 17.1213 296.375 16.5V1.5C296.375 0.87868 296.879 0.375 297.5 0.375Z" fill="#FF5757" stroke="black" stroke-width="0.75"/>
<path d="M98 0.375H104C104.621 0.375 105.125 0.878679 105.125 1.5V16.5C105.125 17.1213 104.621 17.625 104 17.625H98C97.3787 17.625 96.875 17.1213 96.875 16.5V1.5C96.875 0.87868 97.3787 0.375 98 0.375Z" fill="#FF5757" stroke="black" stroke-width="0.75"/>
<path d="M308 0.375H314C314.621 0.375 315.125 0.878679 315.125 1.5V16.5C315.125 17.1213 314.621 17.625 314 17.625H308C307.379 17.625 306.875 17.1213 306.875 16.5V1.5C306.875 0.87868 307.379 0.375 308 0.375Z" fill="#FF5757" stroke="black" stroke-width="0.75"/>
<path d="M108.5 0.375H114.5C115.121 0.375 115.625 0.87868 115.625 1.5V16.5C115.625 17.1213 115.121 17.625 114.5 17.625H108.5C107.879 17.625 107.375 17.1213 107.375 16.5V1.5C107.375 0.87868 107.879 0.375 108.5 0.375Z" fill="white" stroke="black" stroke-width="0.75"/>
<path d="M318.5 0.375H324.5C325.121 0.375 325.625 0.87868 325.625 1.5V16.5C325.625 17.1213 325.121 17.625 324.5 17.625H318.5C317.879 17.625 317.375 17.1213 317.375 16.5V1.5C317.375 0.87868 317.879 0.375 318.5 0.375Z" fill="white" stroke="black" stroke-width="0.75"/>
<path d="M119 0.375H125C125.621 0.375 126.125 0.878679 126.125 1.5V16.5C126.125 17.1213 125.621 17.625 125 17.625H119C118.379 17.625 117.875 17.1213 117.875 16.5V1.5C117.875 0.87868 118.379 0.375 119 0.375Z" fill="white" stroke="black" stroke-width="0.75"/>
<path d="M329 0.375H335C335.621 0.375 336.125 0.878679 336.125 1.5V16.5C336.125 17.1213 335.621 17.625 335 17.625H329C328.379 17.625 327.875 17.1213 327.875 16.5V1.5C327.875 0.87868 328.379 0.375 329 0.375Z" fill="white" stroke="black" stroke-width="0.75"/>
<path d="M129.5 0.375H135.5C136.121 0.375 136.625 0.87868 136.625 1.5V16.5C136.625 17.1213 136.121 17.625 135.5 17.625H129.5C128.879 17.625 128.375 17.1213 128.375 16.5V1.5C128.375 0.87868 128.879 0.375 129.5 0.375Z" fill="white" stroke="black" stroke-width="0.75"/>
<path d="M339.5 0.375H345.5C346.121 0.375 346.625 0.87868 346.625 1.5V16.5C346.625 17.1213 346.121 17.625 345.5 17.625H339.5C338.879 17.625 338.375 17.1213 338.375 16.5V1.5C338.375 0.87868 338.879 0.375 339.5 0.375Z" fill="white" stroke="black" stroke-width="0.75"/>
<path d="M140 0.375H146C146.621 0.375 147.125 0.878679 147.125 1.5V16.5C147.125 17.1213 146.621 17.625 146 17.625H140C139.379 17.625 138.875 17.1213 138.875 16.5V1.5C138.875 0.87868 139.379 0.375 140 0.375Z" fill="#FF5757" stroke="black" stroke-width="0.75"/>
<path d="M350 0.375H356C356.621 0.375 357.125 0.878679 357.125 1.5V16.5C357.125 17.1213 356.621 17.625 356 17.625H350C349.379 17.625 348.875 17.1213 348.875 16.5V1.5C348.875 0.87868 349.379 0.375 350 0.375Z" fill="#FF5757" stroke="black" stroke-width="0.75"/>
<path d="M150.5 0.375H156.5C157.121 0.375 157.625 0.878679 157.625 1.5V16.5C157.625 17.1213 157.121 17.625 156.5 17.625H150.5C149.879 17.625 149.375 17.1213 149.375 16.5V1.5C149.375 0.87868 149.879 0.375 150.5 0.375Z" fill="#FF5757" stroke="black" stroke-width="0.75"/>
<path d="M360.5 0.375H366.5C367.121 0.375 367.625 0.878679 367.625 1.5V16.5C367.625 17.1213 367.121 17.625 366.5 17.625H360.5C359.879 17.625 359.375 17.1213 359.375 16.5V1.5C359.375 0.87868 359.879 0.375 360.5 0.375Z" fill="#FF5757" stroke="black" stroke-width="0.75"/>
<path d="M161 0.375H167C167.621 0.375 168.125 0.878679 168.125 1.5V16.5C168.125 17.1213 167.621 17.625 167 17.625H161C160.379 17.625 159.875 17.1213 159.875 16.5V1.5C159.875 0.87868 160.379 0.375 161 0.375Z" fill="#FF5757" stroke="black" stroke-width="0.75"/>
<path d="M371 0.375H377C377.621 0.375 378.125 0.878679 378.125 1.5V16.5C378.125 17.1213 377.621 17.625 377 17.625H371C370.379 17.625 369.875 17.1213 369.875 16.5V1.5C369.875 0.87868 370.379 0.375 371 0.375Z" fill="#FF5757" stroke="black" stroke-width="0.75"/>
<path d="M171.5 0.375H177.5C178.121 0.375 178.625 0.878679 178.625 1.5V16.5C178.625 17.1213 178.121 17.625 177.5 17.625H171.5C170.879 17.625 170.375 17.1213 170.375 16.5V1.5C170.375 0.87868 170.879 0.375 171.5 0.375Z" fill="white" stroke="black" stroke-width="0.75"/>
<path d="M381.5 0.375H387.5C388.121 0.375 388.625 0.878679 388.625 1.5V16.5C388.625 17.1213 388.121 17.625 387.5 17.625H381.5C380.879 17.625 380.375 17.1213 380.375 16.5V1.5C380.375 0.87868 380.879 0.375 381.5 0.375Z" fill="white" stroke="black" stroke-width="0.75"/>
<path d="M182 0.375H188C188.621 0.375 189.125 0.878679 189.125 1.5V16.5C189.125 17.1213 188.621 17.625 188 17.625H182C181.379 17.625 180.875 17.1213 180.875 16.5V1.5C180.875 0.87868 181.379 0.375 182 0.375Z" fill="white" stroke="black" stroke-width="0.75"/>
<path d="M392 0.375H398C398.621 0.375 399.125 0.878679 399.125 1.5V16.5C399.125 17.1213 398.621 17.625 398 17.625H392C391.379 17.625 390.875 17.1213 390.875 16.5V1.5C390.875 0.87868 391.379 0.375 392 0.375Z" fill="white" stroke="black" stroke-width="0.75"/>
<path d="M192.5 0.375H198.5C199.121 0.375 199.625 0.87868 199.625 1.5V16.5C199.625 17.1213 199.121 17.625 198.5 17.625H192.5C191.879 17.625 191.375 17.1213 191.375 16.5V1.5C191.375 0.87868 191.879 0.375 192.5 0.375Z" fill="white" stroke="black" stroke-width="0.75"/>
<path d="M402.5 0.375H408.5C409.121 0.375 409.625 0.87868 409.625 1.5V16.5C409.625 17.1213 409.121 17.625 408.5 17.625H402.5C401.879 17.625 401.375 17.1213 401.375 16.5V1.5C401.375 0.87868 401.879 0.375 402.5 0.375Z" fill="white" stroke="black" stroke-width="0.75"/>
<path d="M203 0.375H209C209.621 0.375 210.125 0.878679 210.125 1.5V16.5C210.125 17.1213 209.621 17.625 209 17.625H203C202.379 17.625 201.875 17.1213 201.875 16.5V1.5C201.875 0.87868 202.379 0.375 203 0.375Z" fill="#FF5757" stroke="black" stroke-width="0.75"/>
<path d="M413 0.375H419C419.621 0.375 420.125 0.878679 420.125 1.5V16.5C420.125 17.1213 419.621 17.625 419 17.625H413C412.379 17.625 411.875 17.1213 411.875 16.5V1.5C411.875 0.87868 412.379 0.375 413 0.375Z" fill="#FF5757" stroke="black" stroke-width="0.75"/>
</svg>
