<svg id="visual" viewBox="0 0 1000 600" width="1000" height="600" xmlns="http://www.w3.org/2000/svg" xmlns:xlink="http://www.w3.org/1999/xlink" version="1.1"><rect x="0" y="0" width="1000" height="600" fill="#ffffff"></rect><g transform="translate(475.83350345365693 305.7766756474838)"><path d="M137.3 -192.2C167.5 -166.9 174.6 -113 207.3 -56.8C240 -0.7 298.3 57.6 286.4 92.7C274.5 127.8 192.4 139.8 132.9 155.6C73.5 171.5 36.7 191.2 -5.7 199.1C-48.2 207 -96.4 203 -142.4 182.8C-188.3 162.6 -232.1 126.1 -238.7 82.9C-245.4 39.8 -214.9 -10.1 -195.7 -61.8C-176.5 -113.6 -168.5 -167.2 -137.7 -192.4C-107 -217.6 -53.5 -214.3 0 -214.3C53.5 -214.3 107 -217.6 137.3 -192.2" fill="#ef3939"></path></g></svg>