<svg xmlns="http://www.w3.org/2000/svg" xmlns:xlink="http://www.w3.org/1999/xlink" width="500" zoomAndPan="magnify" viewBox="0 0 375 374.999991" height="500" preserveAspectRatio="xMidYMid meet" version="1.0"><defs><g/><clipPath id="d06a301eec"><path d="M 32 197 L 349 197 L 349 291 L 32 291 Z M 32 197 " clip-rule="nonzero"/></clipPath><clipPath id="09324f033d"><path d="M 28.71875 272.761719 L 345.226562 187.664062 L 350.484375 207.21875 L 33.976562 292.320312 Z M 28.71875 272.761719 " clip-rule="nonzero"/></clipPath><clipPath id="52c3d287db"><path d="M 28.71875 272.761719 L 345.226562 187.664062 L 350.484375 207.21875 L 33.976562 292.320312 Z M 28.71875 272.761719 " clip-rule="nonzero"/></clipPath><clipPath id="4ed6509994"><path d="M 219 228 L 220 228 L 220 230 L 219 230 Z M 219 228 " clip-rule="nonzero"/></clipPath><clipPath id="d2306da6e5"><path d="M 28.71875 272.761719 L 345.226562 187.664062 L 350.484375 207.21875 L 33.976562 292.320312 Z M 28.71875 272.761719 " clip-rule="nonzero"/></clipPath><clipPath id="a2f0b92616"><path d="M 28.71875 272.761719 L 345.226562 187.664062 L 350.484375 207.21875 L 33.976562 292.320312 Z M 28.71875 272.761719 " clip-rule="nonzero"/></clipPath><clipPath id="e15efd6eb9"><path d="M 56 282 L 58 282 L 58 283 L 56 283 Z M 56 282 " clip-rule="nonzero"/></clipPath><clipPath id="e0b190d6bf"><path d="M 28.71875 272.761719 L 345.226562 187.664062 L 350.484375 207.21875 L 33.976562 292.320312 Z M 28.71875 272.761719 " clip-rule="nonzero"/></clipPath><clipPath id="2c1ea69302"><path d="M 28.71875 272.761719 L 345.226562 187.664062 L 350.484375 207.21875 L 33.976562 292.320312 Z M 28.71875 272.761719 " clip-rule="nonzero"/></clipPath><clipPath id="e59930c4c9"><path d="M 328 202 L 329 202 L 329 203 L 328 203 Z M 328 202 " clip-rule="nonzero"/></clipPath><clipPath id="0d24649619"><path d="M 28.71875 272.761719 L 345.226562 187.664062 L 350.484375 207.21875 L 33.976562 292.320312 Z M 28.71875 272.761719 " clip-rule="nonzero"/></clipPath><clipPath id="78d5660344"><path d="M 28.71875 272.761719 L 345.226562 187.664062 L 350.484375 207.21875 L 33.976562 292.320312 Z M 28.71875 272.761719 " clip-rule="nonzero"/></clipPath><clipPath id="9705a0381b"><path d="M 32 196 L 349 196 L 349 291 L 32 291 Z M 32 196 " clip-rule="nonzero"/></clipPath><clipPath id="5a6dac6430"><path d="M 28.523438 272.035156 L 345.03125 186.9375 L 350.289062 206.492188 L 33.78125 291.59375 Z M 28.523438 272.035156 " clip-rule="nonzero"/></clipPath><clipPath id="79afb49453"><path d="M 28.523438 272.035156 L 345.03125 186.9375 L 350.289062 206.492188 L 33.78125 291.59375 Z M 28.523438 272.035156 " clip-rule="nonzero"/></clipPath><clipPath id="c820b9bf32"><path d="M 218 228 L 220 228 L 220 229 L 218 229 Z M 218 228 " clip-rule="nonzero"/></clipPath><clipPath id="d5fb4b50fb"><path d="M 28.523438 272.035156 L 345.03125 186.9375 L 350.289062 206.492188 L 33.78125 291.59375 Z M 28.523438 272.035156 " clip-rule="nonzero"/></clipPath><clipPath id="6621f4bc6d"><path d="M 28.523438 272.035156 L 345.03125 186.9375 L 350.289062 206.492188 L 33.78125 291.59375 Z M 28.523438 272.035156 " clip-rule="nonzero"/></clipPath><clipPath id="685360b263"><path d="M 56 281 L 58 281 L 58 283 L 56 283 Z M 56 281 " clip-rule="nonzero"/></clipPath><clipPath id="59996d2eae"><path d="M 28.523438 272.035156 L 345.03125 186.9375 L 350.289062 206.492188 L 33.78125 291.59375 Z M 28.523438 272.035156 " clip-rule="nonzero"/></clipPath><clipPath id="f2060f3af6"><path d="M 28.523438 272.035156 L 345.03125 186.9375 L 350.289062 206.492188 L 33.78125 291.59375 Z M 28.523438 272.035156 " clip-rule="nonzero"/></clipPath><clipPath id="984574165b"><path d="M 328 201 L 329 201 L 329 202 L 328 202 Z M 328 201 " clip-rule="nonzero"/></clipPath><clipPath id="d4b3cd7f78"><path d="M 28.523438 272.035156 L 345.03125 186.9375 L 350.289062 206.492188 L 33.78125 291.59375 Z M 28.523438 272.035156 " clip-rule="nonzero"/></clipPath><clipPath id="34eae1949b"><path d="M 28.523438 272.035156 L 345.03125 186.9375 L 350.289062 206.492188 L 33.78125 291.59375 Z M 28.523438 272.035156 " clip-rule="nonzero"/></clipPath></defs><g fill="#202020" fill-opacity="1"><g transform="translate(49.843809, 245.598044)"><g><path d="M 9.6875 -30.875 C 8.738281 -31.101562 8.28125 -31.128906 8.3125 -30.953125 C 8.226562 -30.835938 8.144531 -30.429688 8.0625 -29.734375 C 7.976562 -29.035156 7.867188 -28.21875 7.734375 -27.28125 C 7.453125 -24.664062 7.085938 -21.859375 6.640625 -18.859375 C 6.191406 -15.859375 5.800781 -13.234375 5.46875 -10.984375 C 5.144531 -8.734375 4.929688 -7.316406 4.828125 -6.734375 C 4.640625 -5.515625 4.675781 -4.925781 4.9375 -4.96875 C 5.03125 -4.976562 6.3125 -5.820312 8.78125 -7.5 C 11.257812 -9.1875 14.175781 -11.140625 17.53125 -13.359375 C 28.007812 -20.535156 36.304688 -26.695312 42.421875 -31.84375 C 48.546875 -36.988281 53.238281 -41.671875 56.5 -45.890625 L 58.8125 -48.984375 L 56.75 -48.953125 C 55.632812 -48.972656 54.070312 -48.796875 52.0625 -48.421875 C 50.050781 -48.046875 47.984375 -47.570312 45.859375 -47 C 43.734375 -46.4375 41.84375 -45.847656 40.1875 -45.234375 C 29.851562 -41.566406 22.410156 -37.671875 17.859375 -33.546875 C 16.660156 -32.265625 15.671875 -31.476562 14.890625 -31.1875 C 14.210938 -30.8125 13.367188 -30.597656 12.359375 -30.546875 C 11.359375 -30.503906 10.46875 -30.613281 9.6875 -30.875 Z M 15.15625 -79.875 C 15.050781 -78.75 14.796875 -76.988281 14.390625 -74.59375 C 13.992188 -72.207031 13.640625 -69.882812 13.328125 -67.625 C 11.578125 -57.175781 10.769531 -51.5 10.90625 -50.59375 C 10.957031 -50.238281 11.082031 -50.144531 11.28125 -50.3125 C 11.488281 -50.476562 11.988281 -50.988281 12.78125 -51.84375 C 13.664062 -52.695312 15.789062 -54.691406 19.15625 -57.828125 C 22.53125 -60.972656 26.832031 -64.890625 32.0625 -69.578125 C 35.300781 -72.617188 38.515625 -75.695312 41.703125 -78.8125 C 44.898438 -81.925781 47.488281 -84.585938 49.46875 -86.796875 C 50.34375 -87.742188 51.382812 -88.96875 52.59375 -90.46875 C 53.8125 -91.976562 54.878906 -93.375 55.796875 -94.65625 C 56.722656 -95.9375 57.179688 -96.625 57.171875 -96.71875 C 57.140625 -96.882812 56.3125 -96.851562 54.6875 -96.625 C 53.070312 -96.394531 51.054688 -96.039062 48.640625 -95.5625 C 46.222656 -95.082031 43.75 -94.523438 41.21875 -93.890625 C 38.6875 -93.265625 36.457031 -92.632812 34.53125 -92 C 32.507812 -91.34375 30.210938 -90.507812 27.640625 -89.5 C 25.078125 -88.5 22.738281 -87.503906 20.625 -86.515625 C 18.519531 -85.523438 17.175781 -84.804688 16.59375 -84.359375 C 16.007812 -84.003906 15.53125 -82.507812 15.15625 -79.875 Z M -0.5625 -70.203125 C -0.269531 -71.441406 -0.1875 -72.171875 -0.3125 -72.390625 C -0.4375 -72.609375 -0.90625 -72.695312 -1.71875 -72.65625 C -3.03125 -72.75 -4.019531 -73.390625 -4.6875 -74.578125 C -5.363281 -75.773438 -5.476562 -77.050781 -5.03125 -78.40625 C -4.6875 -79.28125 -3.785156 -80.578125 -2.328125 -82.296875 C -0.867188 -84.015625 0.515625 -85.425781 1.828125 -86.53125 C 2.804688 -87.394531 3.457031 -88.101562 3.78125 -88.65625 C 4.113281 -89.207031 4.546875 -90.257812 5.078125 -91.8125 C 5.734375 -94.300781 6.5625 -96.535156 7.5625 -98.515625 C 8.570312 -100.492188 9.367188 -101.707031 9.953125 -102.15625 C 11.867188 -103.53125 13.703125 -103.515625 15.453125 -102.109375 C 16.171875 -101.660156 16.625 -101.265625 16.8125 -100.921875 C 17 -100.585938 17.15625 -99.972656 17.28125 -99.078125 C 17.445312 -97.898438 17.691406 -97.285156 18.015625 -97.234375 C 18.347656 -97.191406 19.46875 -97.578125 21.375 -98.390625 C 28.914062 -101.566406 37.96875 -104.132812 48.53125 -106.09375 C 53.820312 -107.03125 57.742188 -107.378906 60.296875 -107.140625 C 62.859375 -106.898438 64.851562 -105.96875 66.28125 -104.34375 C 69.101562 -101.34375 69.109375 -97.066406 66.296875 -91.515625 C 65.316406 -89.441406 63.816406 -87.09375 61.796875 -84.46875 C 59.773438 -81.851562 57.09375 -78.722656 53.75 -75.078125 C 50.40625 -71.429688 46.164062 -66.988281 41.03125 -61.75 C 39.082031 -59.832031 37.941406 -58.613281 37.609375 -58.09375 C 37.273438 -57.582031 37.492188 -57.476562 38.265625 -57.78125 C 38.785156 -58.03125 39.914062 -58.328125 41.65625 -58.671875 C 43.394531 -59.015625 45.347656 -59.335938 47.515625 -59.640625 C 49.679688 -59.953125 51.664062 -60.234375 53.46875 -60.484375 C 55.269531 -60.742188 56.5 -60.820312 57.15625 -60.71875 C 65.1875 -60.394531 69.585938 -57.535156 70.359375 -52.140625 C 71.015625 -48.171875 69.378906 -43.476562 65.453125 -38.0625 C 61.535156 -32.644531 54.972656 -25.789062 45.765625 -17.5 C 33.097656 -6.332031 21.796875 2.429688 11.859375 8.796875 C 8.140625 11.160156 5.347656 12.726562 3.484375 13.5 C 1.628906 14.269531 -0.09375 14.582031 -1.6875 14.4375 C -4.300781 14.070312 -6.117188 12.695312 -7.140625 10.3125 C -8.171875 7.9375 -7.972656 5.628906 -6.546875 3.390625 C -6.328125 3.003906 -6.257812 2.675781 -6.34375 2.40625 C -6.425781 2.144531 -6.703125 1.632812 -7.171875 0.875 C -7.648438 0.125 -7.972656 -0.535156 -8.140625 -1.109375 C -8.316406 -1.691406 -8.484375 -2.84375 -8.640625 -4.5625 C -8.796875 -7.03125 -8.695312 -10.769531 -8.34375 -15.78125 C -8 -20.789062 -7.445312 -26.445312 -6.6875 -32.75 C -5.9375 -39.0625 -5.015625 -45.507812 -3.921875 -52.09375 C -2.835938 -58.675781 -1.71875 -64.710938 -0.5625 -70.203125 Z M -0.5625 -70.203125 "/></g></g></g><g fill="#202020" fill-opacity="1"><g transform="translate(133.20631, 233.808878)"><g><path d="M -29.703125 -16.0625 C -29.585938 -17.925781 -29.023438 -19.5 -28.015625 -20.78125 C -27.003906 -22.0625 -25.066406 -23.644531 -22.203125 -25.53125 C -21.046875 -26.332031 -20 -27.003906 -19.0625 -27.546875 C -18.125 -28.097656 -17.039062 -28.734375 -15.8125 -29.453125 C -14.582031 -30.179688 -12.9375 -31.082031 -10.875 -32.15625 C -8.820312 -33.226562 -6.132812 -34.644531 -2.8125 -36.40625 C -0.0625 -37.800781 2.335938 -39.035156 4.390625 -40.109375 C 6.441406 -41.191406 7.507812 -41.78125 7.59375 -41.875 C 7.664062 -41.96875 7.78125 -42.597656 7.9375 -43.765625 C 8.09375 -44.941406 8.253906 -46.28125 8.421875 -47.78125 C 8.640625 -50.019531 9.035156 -52.832031 9.609375 -56.21875 C 10.191406 -59.613281 10.796875 -63.003906 11.421875 -66.390625 C 12.046875 -69.773438 12.609375 -72.609375 13.109375 -74.890625 C 13.703125 -77.191406 14.375 -79.566406 15.125 -82.015625 C 15.882812 -84.460938 16.65625 -86.640625 17.4375 -88.546875 C 18.226562 -90.453125 18.851562 -91.753906 19.3125 -92.453125 C 19.925781 -93.273438 20.398438 -93.78125 20.734375 -93.96875 C 21.078125 -94.15625 21.707031 -94.3125 22.625 -94.4375 C 23.875 -94.613281 24.960938 -94.351562 25.890625 -93.65625 C 26.617188 -93.113281 27.140625 -92.519531 27.453125 -91.875 C 27.773438 -91.238281 27.898438 -90.019531 27.828125 -88.21875 C 27.765625 -86.414062 27.5 -83.597656 27.03125 -79.765625 C 26.5625 -75.929688 25.859375 -70.546875 24.921875 -63.609375 C 24.617188 -61.085938 24.304688 -58.703125 23.984375 -56.453125 C 23.671875 -54.203125 23.472656 -52.707031 23.390625 -51.96875 C 23.160156 -50.28125 23.148438 -49.351562 23.359375 -49.1875 C 23.453125 -49.195312 23.847656 -49.34375 24.546875 -49.625 C 25.242188 -49.914062 26.066406 -50.269531 27.015625 -50.6875 C 27.953125 -51.175781 29.179688 -51.738281 30.703125 -52.375 C 32.222656 -53.007812 33.59375 -53.546875 34.8125 -53.984375 C 36.019531 -54.523438 37.09375 -55.046875 38.03125 -55.546875 C 38.96875 -56.046875 39.523438 -56.351562 39.703125 -56.46875 C 39.847656 -56.675781 40.066406 -57.375 40.359375 -58.5625 C 40.660156 -59.757812 40.894531 -61.0625 41.0625 -62.46875 C 42.03125 -68.5625 43.363281 -74.671875 45.0625 -80.796875 C 46.769531 -86.921875 48.570312 -92.09375 50.46875 -96.3125 C 51.582031 -98.851562 52.53125 -100.753906 53.3125 -102.015625 C 54.09375 -103.273438 54.984375 -104.296875 55.984375 -105.078125 C 57.972656 -106.648438 60.085938 -107.132812 62.328125 -106.53125 C 64.566406 -105.925781 65.941406 -104.46875 66.453125 -102.15625 C 66.648438 -101.445312 66.734375 -100.5625 66.703125 -99.5 C 66.671875 -98.4375 66.460938 -96.640625 66.078125 -94.109375 C 65.703125 -91.578125 65.0625 -87.671875 64.15625 -82.390625 C 63.382812 -77.421875 62.78125 -73.570312 62.34375 -70.84375 C 61.90625 -68.113281 61.597656 -66.234375 61.421875 -65.203125 C 61.242188 -64.171875 61.175781 -63.519531 61.21875 -63.25 C 61.238281 -63.0625 61.472656 -62.835938 61.921875 -62.578125 C 62.367188 -62.316406 62.835938 -62.085938 63.328125 -61.890625 C 66.222656 -60.910156 67.898438 -58.796875 68.359375 -55.546875 C 68.929688 -51.492188 66.664062 -48.054688 61.5625 -45.234375 C 60.53125 -44.722656 59.789062 -44.25 59.34375 -43.8125 C 58.90625 -43.382812 58.59375 -42.671875 58.40625 -41.671875 C 58.21875 -40.679688 58.023438 -38.929688 57.828125 -36.421875 C 57.304688 -30.378906 56.707031 -24.738281 56.03125 -19.5 C 55.351562 -14.269531 54.738281 -9.867188 54.1875 -6.296875 C 53.632812 -2.722656 53.109375 -0.394531 52.609375 0.6875 C 52.347656 1.363281 51.773438 2.019531 50.890625 2.65625 C 50.003906 3.289062 49.113281 3.671875 48.21875 3.796875 C 47.59375 3.878906 46.765625 3.691406 45.734375 3.234375 C 44.703125 2.785156 43.859375 2.191406 43.203125 1.453125 C 42.441406 0.554688 41.742188 -0.96875 41.109375 -3.125 C 40.484375 -5.289062 39.863281 -8.53125 39.25 -12.84375 C 38.84375 -15.726562 38.550781 -18.265625 38.375 -20.453125 C 38.207031 -22.640625 38.101562 -24.875 38.0625 -27.15625 C 38.09375 -28.90625 38.082031 -30.414062 38.03125 -31.6875 C 37.988281 -32.96875 37.921875 -33.601562 37.828125 -33.59375 C 37.722656 -33.675781 37.09375 -33.429688 35.9375 -32.859375 C 34.78125 -32.285156 33.316406 -31.570312 31.546875 -30.71875 C 29.785156 -29.863281 28.050781 -28.992188 26.34375 -28.109375 C 24.632812 -27.234375 23.179688 -26.457031 21.984375 -25.78125 C 20.796875 -25.101562 20.164062 -24.710938 20.09375 -24.609375 C 20.007812 -24.503906 19.898438 -23.9375 19.765625 -22.90625 C 19.640625 -21.882812 19.484375 -20.722656 19.296875 -19.421875 C 18.734375 -13.722656 18.144531 -8.972656 17.53125 -5.171875 C 16.925781 -1.367188 16.175781 1.929688 15.28125 4.734375 C 13.363281 10.691406 10.78125 12.570312 7.53125 10.375 L 6.03125 9.484375 L 5.59375 5.40625 C 5.238281 2.882812 5.050781 0.132812 5.03125 -2.84375 C 5.019531 -5.832031 5.164062 -9.828125 5.46875 -14.828125 C 5.550781 -15.585938 5.597656 -16.257812 5.609375 -16.84375 C 5.617188 -17.4375 5.570312 -17.773438 5.46875 -17.859375 C 5.363281 -17.941406 4.921875 -17.8125 4.140625 -17.46875 C 3.367188 -17.132812 2.515625 -16.710938 1.578125 -16.203125 C 0.546875 -15.691406 -0.679688 -15.128906 -2.109375 -14.515625 C -3.546875 -13.898438 -4.738281 -13.34375 -5.6875 -12.84375 C -7.757812 -11.90625 -8.976562 -11.296875 -9.34375 -11.015625 C -9.71875 -10.734375 -9.613281 -10.5 -9.03125 -10.3125 C -8.445312 -10.019531 -8.117188 -9.625 -8.046875 -9.125 C -7.972656 -8.632812 -8.160156 -8.359375 -8.609375 -8.296875 C -9.148438 -8.222656 -9.875 -8.441406 -10.78125 -8.953125 C -11.382812 -9.316406 -11.941406 -9.507812 -12.453125 -9.53125 C -12.960938 -9.5625 -14.367188 -9.316406 -16.671875 -8.796875 C -18.640625 -8.429688 -20.054688 -8.207031 -20.921875 -8.125 C -21.785156 -8.050781 -22.601562 -8.144531 -23.375 -8.40625 C -25.1875 -8.800781 -26.726562 -9.757812 -28 -11.28125 C -29.269531 -12.800781 -29.835938 -14.394531 -29.703125 -16.0625 Z M -29.703125 -16.0625 "/></g></g></g><g fill="#202020" fill-opacity="1"><g transform="translate(204.408594, 223.739416)"><g><path d="M 2.96875 -9.234375 C 3.507812 -9.304688 4.296875 -9.601562 5.328125 -10.125 L 6.875 -10.90625 L 5.140625 -10.375 C 4.265625 -10.15625 3.53125 -9.863281 2.9375 -9.5 C 2.34375 -9.144531 2.351562 -9.054688 2.96875 -9.234375 Z M 14.09375 -14.390625 C 14.269531 -14.410156 14.9375 -14.710938 16.09375 -15.296875 C 17.25 -15.878906 18.53125 -16.539062 19.9375 -17.28125 C 21.351562 -18.03125 22.578125 -18.664062 23.609375 -19.1875 C 27.253906 -21.363281 30.867188 -23.738281 34.453125 -26.3125 C 38.035156 -28.882812 41.253906 -31.425781 44.109375 -33.9375 C 46.972656 -36.457031 49.101562 -38.644531 50.5 -40.5 C 51.96875 -42.457031 52.765625 -43.804688 52.890625 -44.546875 C 53.015625 -45.296875 52.570312 -46.015625 51.5625 -46.703125 C 49.8125 -48.015625 46.257812 -49.097656 40.90625 -49.953125 C 35.550781 -50.804688 28.109375 -51.429688 18.578125 -51.828125 C 15.804688 -51.898438 13.144531 -52.03125 10.59375 -52.21875 C 8.050781 -52.414062 6.3125 -52.539062 5.375 -52.59375 C 0.789062 -53.144531 -2.765625 -54.429688 -5.296875 -56.453125 C -7.835938 -58.484375 -9.1875 -61.046875 -9.34375 -64.140625 C -9.507812 -67.242188 -8.367188 -70.53125 -5.921875 -74 C -4.179688 -76.632812 -1.945312 -79.175781 0.78125 -81.625 C 3.507812 -84.082031 7.378906 -87.085938 12.390625 -90.640625 C 17.992188 -94.566406 23.429688 -97.863281 28.703125 -100.53125 C 33.984375 -103.207031 38.726562 -105.09375 42.9375 -106.1875 C 47.15625 -107.289062 50.375 -107.445312 52.59375 -106.65625 C 54.632812 -105.851562 56.007812 -104.535156 56.71875 -102.703125 C 57.21875 -101.210938 57.0625 -99.582031 56.25 -97.8125 C 55.445312 -96.039062 53.753906 -93.875 51.171875 -91.3125 C 48.597656 -88.75 44.894531 -85.421875 40.0625 -81.328125 C 37.820312 -79.535156 36.382812 -78.4375 35.75 -78.03125 C 35.125 -77.625 34.65625 -77.53125 34.34375 -77.75 C 33.832031 -78.144531 33.675781 -78.632812 33.875 -79.21875 C 33.925781 -79.5 34.539062 -80.503906 35.71875 -82.234375 C 36.894531 -83.960938 38.285156 -85.953125 39.890625 -88.203125 C 41.515625 -90.359375 42.90625 -92.226562 44.0625 -93.8125 C 45.21875 -95.40625 45.75 -96.242188 45.65625 -96.328125 C 45.539062 -96.398438 44.859375 -96.140625 43.609375 -95.546875 C 42.367188 -94.960938 40.914062 -94.226562 39.25 -93.34375 C 37.582031 -92.457031 36.019531 -91.59375 34.5625 -90.75 C 29.988281 -88.082031 25.394531 -84.859375 20.78125 -81.078125 C 16.175781 -77.304688 12.113281 -73.519531 8.59375 -69.71875 C 7.09375 -68.039062 6.359375 -67.066406 6.390625 -66.796875 C 6.441406 -66.429688 10.125 -66.070312 17.4375 -65.71875 C 25.394531 -65.375 32.398438 -64.753906 38.453125 -63.859375 C 44.503906 -62.972656 49.460938 -61.84375 53.328125 -60.46875 C 58.253906 -58.769531 61.867188 -56.296875 64.171875 -53.046875 C 64.773438 -52.023438 65.191406 -51.1875 65.421875 -50.53125 C 65.660156 -49.875 65.894531 -48.734375 66.125 -47.109375 C 66.375 -45.304688 66.476562 -44.054688 66.4375 -43.359375 C 66.394531 -42.660156 66.09375 -41.398438 65.53125 -39.578125 C 65.082031 -38.140625 64.597656 -36.945312 64.078125 -36 C 63.566406 -35.0625 62.769531 -33.914062 61.6875 -32.5625 C 56.957031 -26.382812 50.566406 -20.265625 42.515625 -14.203125 C 34.460938 -8.140625 25.40625 -2.660156 15.34375 2.234375 C 4.101562 7.867188 -4.238281 10.566406 -9.6875 10.328125 C -12.269531 10.328125 -14.65625 9.425781 -16.84375 7.625 C -18.820312 5.882812 -19.957031 3.695312 -20.25 1.0625 C -20.28125 0.15625 -20.222656 -0.601562 -20.078125 -1.21875 C -19.941406 -1.832031 -19.703125 -2.53125 -19.359375 -3.3125 C -18.359375 -5.394531 -16.53125 -7.609375 -13.875 -9.953125 C -11.226562 -12.304688 -8.363281 -14.300781 -5.28125 -15.9375 C -3.570312 -16.820312 -1.492188 -17.53125 0.953125 -18.0625 C 3.410156 -18.59375 5.65625 -18.816406 7.6875 -18.734375 C 9.8125 -18.660156 11.269531 -18.398438 12.0625 -17.953125 C 12.863281 -17.515625 13.390625 -16.722656 13.640625 -15.578125 C 13.753906 -14.765625 13.90625 -14.367188 14.09375 -14.390625 Z M 14.09375 -14.390625 "/></g></g></g><g fill="#202020" fill-opacity="1"><g transform="translate(275.881006, 213.631752)"><g><path d="M 35.515625 -98.734375 C 35.585938 -98.285156 35.566406 -97.78125 35.453125 -97.21875 C 35.398438 -96.9375 35.445312 -96.757812 35.59375 -96.6875 C 35.75 -96.613281 36.132812 -96.671875 36.75 -96.859375 C 37.101562 -97.003906 37.429688 -97.140625 37.734375 -97.265625 C 38.035156 -97.390625 38.179688 -97.5 38.171875 -97.59375 C 38.234375 -97.695312 38.132812 -97.867188 37.875 -98.109375 C 37.613281 -98.347656 37.289062 -98.535156 36.90625 -98.671875 C 36.300781 -99.035156 35.925781 -99.226562 35.78125 -99.25 C 35.644531 -99.28125 35.554688 -99.109375 35.515625 -98.734375 Z M 31.953125 -76.1875 C 31.640625 -74.488281 31.179688 -72.035156 30.578125 -68.828125 C 29.972656 -65.628906 29.332031 -62.1875 28.65625 -58.5 C 27.988281 -54.8125 27.375 -51.390625 26.8125 -48.234375 C 26.25 -45.078125 25.800781 -42.703125 25.46875 -41.109375 C 24.707031 -36.117188 24.03125 -30.988281 23.4375 -25.71875 C 22.851562 -20.445312 22.4375 -15.609375 22.1875 -11.203125 C 21.945312 -6.796875 21.910156 -3.320312 22.078125 -0.78125 C 22.210938 0.851562 22.328125 1.847656 22.421875 2.203125 C 22.523438 2.554688 22.835938 2.925781 23.359375 3.3125 C 23.566406 3.5625 23.8125 3.867188 24.09375 4.234375 C 24.375 4.609375 24.585938 4.96875 24.734375 5.3125 C 24.921875 6.03125 24.796875 7.128906 24.359375 8.609375 C 23.929688 10.097656 23.410156 11.25 22.796875 12.0625 C 22.234375 12.695312 21.445312 13.203125 20.4375 13.578125 C 19.4375 13.953125 18.515625 14.0625 17.671875 13.90625 C 16.835938 13.84375 15.976562 13.4375 15.09375 12.6875 C 14.207031 11.9375 13.476562 11.140625 12.90625 10.296875 C 12.289062 9.285156 11.613281 7.3125 10.875 4.375 C 10.144531 1.445312 9.4375 -1.796875 8.75 -5.359375 C 7.84375 -11.117188 7.242188 -16.160156 6.953125 -20.484375 C 6.671875 -24.816406 6.640625 -29.429688 6.859375 -34.328125 C 7.171875 -38.679688 7.570312 -42.660156 8.0625 -46.265625 C 8.5625 -49.878906 9.3125 -54.332031 10.3125 -59.625 C 10.75 -61.800781 11.128906 -63.671875 11.453125 -65.234375 C 11.785156 -66.796875 11.945312 -67.625 11.9375 -67.71875 C 11.8125 -67.976562 11.53125 -67.976562 11.09375 -67.71875 C 8.695312 -66.46875 6.128906 -65.117188 3.390625 -63.671875 C 0.660156 -62.234375 -1.164062 -61.210938 -2.09375 -60.609375 C -2.945312 -60.117188 -4.207031 -59.457031 -5.875 -58.625 C -7.550781 -57.800781 -9.289062 -56.960938 -11.09375 -56.109375 C -12.90625 -55.253906 -14.546875 -54.515625 -16.015625 -53.890625 C -17.492188 -53.273438 -18.503906 -52.878906 -19.046875 -52.703125 C -20.804688 -52.285156 -22.375 -52.390625 -23.75 -53.015625 C -25.132812 -53.648438 -26.019531 -54.71875 -26.40625 -56.21875 C -26.875 -58.175781 -26.460938 -59.957031 -25.171875 -61.5625 C -23.890625 -63.164062 -21.097656 -65.328125 -16.796875 -68.046875 C -15.773438 -68.660156 -14.207031 -69.597656 -12.09375 -70.859375 C -9.976562 -72.117188 -7.597656 -73.488281 -4.953125 -74.96875 C -2.304688 -76.445312 0.332031 -77.921875 2.96875 -79.390625 C 5.601562 -80.867188 7.90625 -82.113281 9.875 -83.125 L 16.828125 -86.71875 L 18.078125 -90.484375 C 18.378906 -91.535156 18.753906 -92.738281 19.203125 -94.09375 C 19.660156 -95.445312 20.015625 -96.554688 20.265625 -97.421875 C 21.328125 -100.972656 22.394531 -104.132812 23.46875 -106.90625 C 24.550781 -109.675781 25.367188 -111.367188 25.921875 -111.984375 C 28.703125 -115.046875 31.378906 -115.613281 33.953125 -113.6875 C 34.566406 -113.21875 35.03125 -112.679688 35.34375 -112.078125 C 35.664062 -111.484375 36.128906 -110.304688 36.734375 -108.546875 C 37.492188 -106.453125 38.203125 -104.878906 38.859375 -103.828125 C 39.515625 -102.785156 40.519531 -101.710938 41.875 -100.609375 C 42.382812 -100.222656 42.753906 -100.019531 42.984375 -100 C 43.210938 -99.988281 43.632812 -100.070312 44.25 -100.25 C 44.6875 -100.5 45.804688 -101.050781 47.609375 -101.90625 C 49.421875 -102.757812 51.40625 -103.660156 53.5625 -104.609375 C 57.101562 -106.210938 59.832031 -107.351562 61.75 -108.03125 C 63.675781 -108.71875 65.164062 -109.066406 66.21875 -109.078125 C 67.28125 -109.097656 68.351562 -108.859375 69.4375 -108.359375 C 71.289062 -107.515625 72.234375 -106.015625 72.265625 -103.859375 C 72.304688 -101.710938 71.453125 -100.003906 69.703125 -98.734375 C 69.429688 -98.628906 68.441406 -98.109375 66.734375 -97.171875 C 65.035156 -96.242188 62.929688 -95.097656 60.421875 -93.734375 C 57.910156 -92.367188 55.257812 -90.957031 52.46875 -89.5 C 49.6875 -88.050781 47.015625 -86.640625 44.453125 -85.265625 C 43.066406 -84.609375 41.539062 -83.835938 39.875 -82.953125 C 38.207031 -82.078125 36.910156 -81.347656 35.984375 -80.765625 L 32.53125 -79.03125 Z M 31.953125 -76.1875 "/></g></g></g><g clip-path="url(#d06a301eec)"><g clip-path="url(#09324f033d)"><g clip-path="url(#52c3d287db)"><path fill="#202020" d="M 177.132812 233.023438 C 167.871094 235.628906 160.074219 237.933594 154.257812 239.808594 C 152.613281 240.332031 149.726562 241.253906 147.824219 241.863281 C 142.902344 243.429688 124.824219 249.558594 117.746094 252.0625 C 116.691406 252.425781 113.75 253.445312 111.203125 254.308594 C 108.671875 255.167969 106.292969 255.988281 105.925781 256.132812 C 105.558594 256.28125 101.390625 257.761719 96.65625 259.4375 C 91.921875 261.101562 85.484375 263.386719 82.339844 264.507812 C 79.195312 265.613281 73.363281 267.667969 69.347656 269.054688 C 56.703125 273.449219 51.234375 275.46875 46.664062 277.445312 C 45.078125 278.132812 44.046875 278.652344 43.921875 278.851562 C 43.804688 279.027344 43.078125 279.402344 42.070312 279.820312 C 37.980469 281.46875 36.304688 282.3125 34.3125 283.722656 C 33.03125 284.636719 32.945312 284.742188 32.765625 285.457031 C 32.617188 286.0625 32.625 286.273438 32.804688 286.453125 C 32.980469 286.617188 33.007812 286.722656 32.878906 286.90625 C 32.65625 287.222656 32.851562 287.953125 33.203125 288.117188 C 33.445312 288.230469 33.457031 288.277344 33.300781 288.480469 C 33.039062 288.828125 33.261719 289.125 34.035156 289.519531 C 34.425781 289.707031 34.738281 289.960938 34.722656 290.082031 C 34.691406 290.445312 34.960938 290.730469 35.457031 290.824219 C 36.753906 291.109375 43.0625 289.675781 47.800781 288.027344 C 49.597656 287.398438 52.820312 286.320312 54.949219 285.601562 C 57.082031 284.898438 59.199219 284.183594 59.644531 284.03125 C 60.085938 283.863281 61.292969 283.457031 62.328125 283.128906 C 63.359375 282.804688 64.628906 282.382812 65.164062 282.203125 C 66.164062 281.871094 68.410156 281.152344 71.523438 280.167969 C 72.515625 279.871094 74.269531 279.316406 75.417969 278.945312 C 77.46875 278.292969 78.179688 278.21875 76.589844 278.824219 C 73.472656 279.988281 73.652344 279.988281 77.890625 278.765625 C 87.53125 276.011719 105.179688 270.292969 115.925781 266.441406 C 118.375 265.574219 121.785156 264.363281 123.492188 263.757812 C 125.214844 263.164062 128.546875 261.960938 130.90625 261.117188 C 133.273438 260.253906 137.101562 258.898438 139.433594 258.09375 C 141.769531 257.285156 146.144531 255.734375 149.15625 254.664062 C 154.464844 252.78125 160.429688 250.726562 167.660156 248.308594 C 169.570312 247.683594 171.167969 247.105469 171.203125 247.046875 C 171.253906 246.9375 167.050781 247.984375 166.097656 248.308594 C 165.832031 248.410156 165.589844 248.410156 165.570312 248.335938 C 165.550781 248.257812 165.65625 248.179688 165.808594 248.140625 C 166.054688 248.089844 168.941406 247.152344 171.21875 246.378906 C 171.753906 246.199219 173.339844 245.691406 174.738281 245.269531 C 176.148438 244.839844 177.964844 244.285156 178.789062 244.015625 C 179.613281 243.761719 181.878906 243.070312 183.824219 242.5 C 185.765625 241.929688 187.761719 241.3125 188.253906 241.148438 C 188.746094 240.984375 191.285156 240.21875 193.894531 239.46875 C 196.503906 238.71875 199.488281 237.851562 200.519531 237.523438 C 201.554688 237.199219 205.597656 236.046875 209.496094 234.949219 C 213.40625 233.847656 217.433594 232.683594 218.46875 232.371094 C 227.898438 229.496094 295.5 211.222656 305.109375 208.949219 C 308.515625 208.144531 313.4375 206.984375 316.035156 206.382812 C 321.765625 205.023438 328.78125 203.265625 328.4375 203.261719 C 328.292969 203.265625 327.066406 203.46875 325.71875 203.714844 L 323.242188 204.171875 L 325.503906 203.527344 C 326.753906 203.160156 327.886719 202.773438 328.03125 202.65625 C 328.246094 202.484375 328.207031 202.460938 327.828125 202.613281 C 327.5625 202.714844 327.328125 202.746094 327.304688 202.671875 C 327.289062 202.609375 327.699219 202.4375 328.226562 202.292969 C 328.820312 202.132812 329.109375 202.121094 328.992188 202.234375 C 328.894531 202.359375 329.066406 202.328125 329.464844 202.171875 C 330.460938 201.773438 341.695312 199.808594 346.066406 199.269531 C 346.695312 199.179688 347.023438 199.074219 347.167969 198.890625 C 347.292969 198.742188 347.597656 198.613281 347.914062 198.578125 C 348.261719 198.546875 348.4375 198.46875 348.402344 198.347656 C 348.378906 198.257812 348.207031 198.222656 348.007812 198.273438 C 347.8125 198.328125 347.496094 198.296875 347.296875 198.222656 C 346.953125 198.085938 346.949219 198.074219 347.273438 197.886719 C 347.691406 197.628906 347.609375 197.457031 347.082031 197.484375 C 341.507812 197.78125 318.792969 201.710938 293.699219 206.703125 C 291.078125 207.226562 287.21875 207.972656 285.128906 208.355469 C 283.039062 208.742188 279.835938 209.339844 278.015625 209.699219 C 276.191406 210.046875 273.472656 210.566406 271.984375 210.835938 C 270.496094 211.105469 267.546875 211.671875 265.421875 212.113281 C 263.3125 212.550781 259.460938 213.324219 256.871094 213.84375 C 244.84375 216.25 239.988281 217.34375 225.609375 220.851562 C 223.136719 221.449219 220.925781 221.980469 220.691406 222.027344 C 220.445312 222.078125 218.957031 222.460938 217.363281 222.875 C 215.617188 223.328125 214.488281 223.546875 214.527344 223.457031 C 214.550781 223.351562 214.441406 223.316406 214.3125 223.367188 C 213.117188 223.707031 211.261719 224.109375 210.347656 224.222656 C 208.976562 224.378906 189.898438 229.445312 177.132812 233.023438 Z M 161.179688 243.976562 C 161.136719 244.050781 160.128906 244.417969 158.929688 244.792969 C 157.734375 245.175781 156.496094 245.589844 156.171875 245.710938 C 155.847656 245.832031 154.640625 246.238281 153.484375 246.597656 C 152.332031 246.957031 151.0625 247.378906 150.648438 247.523438 C 150.25 247.675781 149.234375 248.015625 148.414062 248.285156 C 147.59375 248.554688 146.683594 248.863281 146.410156 248.984375 C 146.128906 249.09375 145.164062 249.433594 144.253906 249.726562 C 143.359375 250.035156 142.421875 250.351562 142.171875 250.449219 C 141.9375 250.546875 141.089844 250.839844 140.320312 251.109375 C 138.949219 251.578125 138.164062 251.851562 136.15625 252.554688 C 135.621094 252.730469 134.59375 253.089844 133.851562 253.335938 C 131.972656 253.972656 130.394531 254.511719 129.613281 254.800781 C 128.84375 255.089844 125.804688 256.167969 123.976562 256.804688 C 123.277344 257.042969 122.417969 257.355469 122.046875 257.484375 C 121.679688 257.617188 120.820312 257.929688 120.121094 258.167969 C 119.417969 258.402344 118.480469 258.722656 118.039062 258.890625 C 117.59375 259.042969 116.6875 259.367188 116.035156 259.589844 C 114.382812 260.164062 113.34375 260.523438 110.09375 261.675781 C 106.414062 262.972656 101.3125 264.71875 99.238281 265.40625 C 98.339844 265.695312 97.058594 266.121094 96.398438 266.332031 C 95.746094 266.558594 94.746094 266.890625 94.167969 267.09375 C 91.394531 268.019531 88.949219 268.773438 88.988281 268.683594 C 89.054688 268.566406 90.160156 268.140625 92.082031 267.492188 C 92.78125 267.257812 93.582031 266.976562 93.859375 266.851562 C 94.136719 266.746094 94.9375 266.449219 95.636719 266.210938 C 98.015625 265.394531 98.832031 265.109375 99.644531 264.808594 C 100.089844 264.640625 103.34375 263.523438 106.851562 262.304688 C 110.378906 261.09375 114.550781 259.632812 116.140625 259.074219 C 124.332031 256.1875 134.8125 252.558594 143.414062 249.628906 C 143.996094 249.441406 145.160156 249.046875 146.023438 248.765625 C 146.890625 248.484375 148.746094 247.886719 150.128906 247.417969 C 153.371094 246.351562 155.117188 245.785156 157.828125 244.925781 C 159.027344 244.554688 160.011719 244.222656 160.023438 244.203125 C 160.09375 244.105469 161.25 243.875 161.179688 243.976562 Z M 237.636719 223.890625 C 246.9375 221.566406 250 220.808594 261.1875 218.125 C 274.226562 215.007812 279.019531 213.914062 280.949219 213.65625 C 281.605469 213.5625 281.671875 213.574219 281.382812 213.765625 C 281.1875 213.886719 281.125 213.949219 281.234375 213.9375 C 281.328125 213.929688 281.441406 213.980469 281.460938 214.054688 C 281.511719 214.238281 281.8125 214.15625 230.609375 227.972656 C 209.566406 233.644531 191.21875 238.644531 189.8125 239.085938 C 187.738281 239.726562 175.351562 243.136719 174.246094 243.386719 C 173.679688 243.507812 174.09375 243.183594 174.816406 242.957031 C 177.503906 242.085938 179.332031 241.515625 181.886719 240.730469 C 183.492188 240.25 185.023438 239.773438 185.257812 239.679688 C 185.507812 239.578125 186.257812 239.34375 186.9375 239.160156 C 187.980469 238.863281 188.152344 238.785156 188.039062 238.605469 C 187.9375 238.46875 187.980469 238.378906 188.144531 238.332031 C 188.3125 238.289062 188.394531 238.347656 188.375 238.515625 C 188.363281 238.714844 188.511719 238.722656 189.160156 238.546875 C 189.875 238.355469 189.984375 238.277344 189.992188 237.949219 L 190.007812 237.589844 L 190.214844 237.9375 L 190.425781 238.289062 L 190.421875 237.914062 C 190.421875 237.609375 190.511719 237.519531 191.019531 237.414062 C 191.644531 237.261719 196.667969 235.765625 199.027344 235 C 199.808594 234.757812 202.757812 233.882812 205.574219 233.0625 C 208.394531 232.238281 210.96875 231.480469 211.296875 231.378906 C 211.625 231.273438 213.480469 230.742188 215.417969 230.203125 C 217.449219 229.660156 218.914062 229.183594 218.890625 229.109375 C 218.867188 229.015625 215.667969 229.8125 210.9375 231.066406 C 206.589844 232.238281 202.984375 233.15625 202.933594 233.140625 C 202.773438 233.035156 229.472656 225.921875 237.636719 223.890625 Z M 189.296875 238.089844 C 189.308594 238.132812 189.269531 238.226562 189.191406 238.296875 C 189.128906 238.359375 189.042969 238.351562 189.023438 238.277344 C 189 238.183594 189.054688 238.089844 189.128906 238.066406 C 189.222656 238.042969 189.289062 238.058594 189.296875 238.089844 Z M 152.355469 248.558594 C 152.257812 248.617188 152.042969 248.671875 151.898438 248.679688 C 151.738281 248.675781 151.820312 248.621094 152.0625 248.554688 C 152.320312 248.484375 152.433594 248.488281 152.355469 248.558594 Z M 149.421875 249.492188 C 149.386719 249.550781 149.257812 249.601562 149.136719 249.585938 C 149.003906 249.570312 149.039062 249.515625 149.203125 249.46875 C 149.367188 249.410156 149.46875 249.429688 149.421875 249.492188 Z M 282.066406 213.890625 C 282.085938 213.96875 282.046875 214.058594 281.972656 214.082031 C 281.878906 214.105469 281.753906 214.058594 281.6875 213.996094 C 281.617188 213.914062 281.664062 213.839844 281.785156 213.804688 C 281.921875 213.769531 282.042969 213.800781 282.066406 213.890625 Z M 147.816406 250.101562 C 147.671875 250.175781 147.429688 250.238281 147.285156 250.246094 C 147.121094 250.242188 147.234375 250.179688 147.523438 250.101562 C 147.808594 250.023438 147.9375 250.019531 147.816406 250.101562 Z M 145.660156 250.84375 C 145.46875 250.929688 145.136719 251.019531 144.902344 251.050781 C 144.648438 251.082031 144.808594 251.007812 145.21875 250.898438 C 145.640625 250.785156 145.832031 250.765625 145.660156 250.84375 Z M 173.726562 243.558594 C 173.582031 243.808594 173.34375 243.710938 173.433594 243.441406 C 173.453125 243.339844 173.566406 243.277344 173.671875 243.296875 C 173.777344 243.332031 173.804688 243.425781 173.726562 243.558594 Z M 143.425781 251.609375 C 143.238281 251.691406 142.902344 251.78125 142.667969 251.8125 C 142.417969 251.847656 142.578125 251.769531 142.984375 251.660156 C 143.410156 251.546875 143.601562 251.527344 143.425781 251.609375 Z M 307.222656 207.566406 C 307.125 207.625 306.945312 207.675781 306.84375 207.667969 C 306.726562 207.652344 306.792969 207.601562 307.007812 207.542969 C 307.21875 207.488281 307.300781 207.496094 307.222656 207.566406 Z M 321.617188 203.695312 C 321.519531 203.753906 321.339844 203.804688 321.238281 203.796875 C 321.121094 203.78125 321.1875 203.730469 321.402344 203.671875 C 321.613281 203.617188 321.699219 203.625 321.617188 203.695312 Z M 141.117188 252.390625 C 140.882812 252.488281 140.519531 252.585938 140.285156 252.613281 C 140.035156 252.648438 140.222656 252.566406 140.679688 252.445312 C 141.132812 252.320312 141.335938 252.300781 141.117188 252.390625 Z M 310.902344 206.742188 C 310.636719 206.84375 310.183594 206.964844 309.917969 207.003906 C 309.636719 207.046875 309.839844 206.960938 310.386719 206.816406 C 310.929688 206.667969 311.152344 206.640625 310.902344 206.742188 Z M 324.234375 203.15625 C 324.046875 203.238281 323.714844 203.328125 323.476562 203.359375 C 323.226562 203.394531 323.386719 203.320312 323.792969 203.210938 C 324.21875 203.09375 324.410156 203.078125 324.234375 203.15625 Z M 138.507812 253.253906 C 138.410156 253.3125 138.226562 253.363281 138.128906 253.355469 C 138.011719 253.339844 138.078125 253.289062 138.289062 253.234375 C 138.503906 253.175781 138.585938 253.183594 138.507812 253.253906 Z M 139.171875 253.0625 C 139.136719 253.117188 139.003906 253.171875 138.886719 253.152344 C 138.753906 253.140625 138.785156 253.082031 138.953125 253.039062 C 139.117188 252.976562 139.21875 253 139.171875 253.0625 Z M 313.746094 206.136719 C 313.527344 206.230469 313.117188 206.339844 312.835938 206.382812 C 312.554688 206.425781 312.730469 206.347656 313.230469 206.210938 C 313.730469 206.078125 313.964844 206.046875 313.746094 206.136719 Z M 326.398438 202.738281 C 326.207031 202.820312 325.875 202.910156 325.640625 202.941406 C 325.390625 202.976562 325.546875 202.898438 325.957031 202.789062 C 326.382812 202.675781 326.570312 202.65625 326.398438 202.738281 Z M 316.589844 205.535156 C 316.398438 205.621094 316.066406 205.710938 315.832031 205.738281 C 315.582031 205.773438 315.738281 205.699219 316.148438 205.589844 C 316.574219 205.476562 316.761719 205.457031 316.589844 205.535156 Z M 319.054688 205.035156 C 318.867188 205.121094 318.5625 205.199219 318.371094 205.21875 C 318.167969 205.242188 318.3125 205.171875 318.691406 205.070312 C 319.066406 204.96875 319.226562 204.957031 319.054688 205.035156 Z M 321.824219 204.453125 C 321.632812 204.539062 321.300781 204.628906 321.066406 204.65625 C 320.8125 204.691406 320.972656 204.617188 321.382812 204.507812 C 321.804688 204.394531 321.996094 204.375 321.824219 204.453125 Z M 88.394531 268.890625 C 88.417969 268.980469 88.082031 269.121094 87.640625 269.222656 L 86.832031 269.425781 L 87.484375 269.136719 C 87.847656 268.972656 88.179688 268.816406 88.257812 268.796875 C 88.3125 268.765625 88.371094 268.800781 88.394531 268.890625 Z M 88.824219 268.675781 C 88.835938 268.722656 88.796875 268.816406 88.71875 268.882812 C 88.65625 268.949219 88.570312 268.941406 88.550781 268.863281 C 88.527344 268.773438 88.582031 268.679688 88.65625 268.65625 C 88.746094 268.632812 88.816406 268.648438 88.824219 268.675781 Z M 86.746094 269.398438 C 86.757812 269.445312 86.714844 269.535156 86.636719 269.605469 C 86.574219 269.671875 86.488281 269.664062 86.46875 269.585938 C 86.445312 269.496094 86.5 269.398438 86.578125 269.378906 C 86.667969 269.355469 86.734375 269.367188 86.746094 269.398438 Z M 165.257812 248.5 C 165.113281 248.570312 164.871094 248.636719 164.726562 248.644531 C 164.5625 248.636719 164.675781 248.574219 164.964844 248.5 C 165.25 248.421875 165.378906 248.417969 165.257812 248.5 Z M 68.953125 277.140625 C 68.921875 277.195312 68.789062 277.25 68.671875 277.230469 C 68.535156 277.21875 68.570312 277.160156 68.738281 277.117188 C 68.898438 277.058594 69.003906 277.078125 68.953125 277.140625 Z M 69.558594 276.976562 C 69.527344 277.035156 69.394531 277.085938 69.277344 277.070312 C 69.144531 277.054688 69.175781 277 69.34375 276.953125 C 69.503906 276.894531 69.609375 276.914062 69.558594 276.976562 Z M 67.332031 277.753906 C 67.039062 277.867188 66.550781 277.996094 66.273438 278.039062 C 66.007812 278.078125 66.253906 277.980469 66.832031 277.824219 C 67.421875 277.664062 67.640625 277.636719 67.332031 277.753906 Z M 63.0625 279.210938 C 56.769531 281.4375 49.847656 284.144531 49.695312 284.429688 C 49.664062 284.503906 50.4375 284.296875 51.421875 283.964844 C 52.410156 283.652344 53.855469 283.164062 54.636719 282.921875 C 55.410156 282.664062 56.4375 282.308594 56.910156 282.132812 C 57.589844 281.886719 57.765625 281.871094 57.8125 282.050781 C 57.847656 282.171875 57.792969 282.335938 57.710938 282.402344 C 57.535156 282.53125 58.972656 282.082031 61.261719 281.289062 C 61.914062 281.046875 62.429688 280.910156 62.394531 280.964844 C 62.328125 281.082031 55.53125 283.542969 54.03125 283.996094 C 53.625 284.121094 53.019531 284.347656 52.707031 284.515625 C 52.390625 284.664062 51.496094 285.019531 50.71875 285.277344 C 49.070312 285.847656 48.953125 285.898438 47.328125 286.5625 C 46.640625 286.84375 45.277344 287.339844 44.289062 287.65625 C 43.300781 287.96875 41.390625 288.597656 40.035156 289.058594 C 37.855469 289.824219 37.457031 289.914062 36.332031 289.957031 C 35.382812 290 34.996094 289.941406 34.753906 289.714844 C 34.09375 289.128906 34.53125 288.882812 38.015625 287.878906 C 39.429688 287.464844 42.007812 286.59375 43.75 285.949219 C 46.4375 284.949219 55.761719 281.613281 61.832031 279.476562 C 62.765625 279.144531 63.976562 278.753906 64.523438 278.605469 C 65.070312 278.460938 64.410156 278.734375 63.0625 279.210938 Z M 35.96875 287.226562 C 36 287.332031 35.125 287.761719 34.609375 287.902344 C 34.316406 287.964844 34.316406 287.964844 34.53125 287.679688 C 34.746094 287.394531 35.917969 287.03125 35.96875 287.226562 Z M 58.714844 281.777344 C 58.734375 281.851562 58.640625 281.925781 58.519531 281.960938 C 58.398438 281.992188 58.246094 282.035156 58.191406 282.066406 C 58.128906 282.082031 58.039062 282.039062 57.988281 281.972656 C 57.933594 281.890625 58.070312 281.804688 58.304688 281.757812 C 58.515625 281.699219 58.699219 281.71875 58.714844 281.777344 Z M 62.96875 280.859375 C 62.933594 280.917969 62.804688 280.96875 62.683594 280.953125 C 62.550781 280.941406 62.585938 280.882812 62.75 280.839844 C 62.914062 280.777344 63.015625 280.800781 62.96875 280.859375 Z M 62.96875 280.859375 " fill-opacity="1" fill-rule="nonzero"/></g></g></g><g clip-path="url(#4ed6509994)"><g clip-path="url(#d2306da6e5)"><g clip-path="url(#a2f0b92616)"><path fill="#202020" d="M 219.046875 229.082031 C 219.0625 229.140625 219.171875 229.179688 219.292969 229.144531 C 219.414062 229.113281 219.535156 229.015625 219.5625 228.945312 C 219.578125 228.875 219.46875 228.839844 219.304688 228.882812 C 219.152344 228.925781 219.03125 229.019531 219.046875 229.082031 Z M 219.046875 229.082031 " fill-opacity="1" fill-rule="nonzero"/></g></g></g><g clip-path="url(#e15efd6eb9)"><g clip-path="url(#e0b190d6bf)"><g clip-path="url(#2c1ea69302)"><path fill="#202020" d="M 56.78125 282.75 C 56.714844 282.980469 56.910156 282.929688 57.160156 282.648438 C 57.324219 282.476562 57.316406 282.445312 57.089844 282.507812 C 56.953125 282.542969 56.804688 282.648438 56.78125 282.75 Z M 56.78125 282.75 " fill-opacity="1" fill-rule="nonzero"/></g></g></g><g clip-path="url(#e59930c4c9)"><g clip-path="url(#0d24649619)"><g clip-path="url(#78d5660344)"><path fill="#202020" d="M 328.417969 202.582031 C 328.441406 202.660156 328.523438 202.667969 328.585938 202.601562 C 328.667969 202.53125 328.707031 202.441406 328.695312 202.394531 C 328.6875 202.363281 328.617188 202.351562 328.527344 202.375 C 328.449219 202.394531 328.394531 202.492188 328.417969 202.582031 Z M 328.417969 202.582031 " fill-opacity="1" fill-rule="nonzero"/></g></g></g><g clip-path="url(#9705a0381b)"><g clip-path="url(#5a6dac6430)"><g clip-path="url(#79afb49453)"><path fill="#202020" d="M 176.9375 232.296875 C 167.675781 234.902344 159.878906 237.207031 154.0625 239.082031 C 152.417969 239.605469 149.53125 240.527344 147.628906 241.136719 C 142.707031 242.703125 124.628906 248.832031 117.550781 251.335938 C 116.496094 251.699219 113.554688 252.71875 111.007812 253.582031 C 108.476562 254.441406 106.097656 255.261719 105.730469 255.40625 C 105.363281 255.554688 101.195312 257.035156 96.460938 258.710938 C 91.726562 260.375 85.289062 262.660156 82.144531 263.78125 C 79 264.886719 73.167969 266.941406 69.152344 268.328125 C 56.507812 272.722656 51.039062 274.742188 46.46875 276.71875 C 44.882812 277.40625 43.851562 277.925781 43.726562 278.125 C 43.609375 278.300781 42.882812 278.675781 41.875 279.09375 C 37.785156 280.742188 36.109375 281.585938 34.117188 282.996094 C 32.835938 283.910156 32.75 284.015625 32.570312 284.730469 C 32.421875 285.335938 32.429688 285.546875 32.609375 285.726562 C 32.785156 285.890625 32.8125 285.996094 32.683594 286.179688 C 32.460938 286.496094 32.65625 287.226562 33.007812 287.390625 C 33.25 287.503906 33.261719 287.550781 33.105469 287.753906 C 32.839844 288.101562 33.066406 288.398438 33.839844 288.792969 C 34.230469 288.980469 34.542969 289.234375 34.527344 289.355469 C 34.496094 289.71875 34.765625 290.003906 35.261719 290.097656 C 36.558594 290.382812 42.867188 288.949219 47.605469 287.300781 C 49.402344 286.671875 52.625 285.59375 54.753906 284.875 C 56.886719 284.171875 59.003906 283.457031 59.449219 283.304688 C 59.890625 283.136719 61.097656 282.730469 62.132812 282.402344 C 63.164062 282.078125 64.433594 281.65625 64.96875 281.476562 C 65.96875 281.144531 68.214844 280.425781 71.328125 279.441406 C 72.320312 279.144531 74.074219 278.589844 75.222656 278.21875 C 77.273438 277.566406 77.984375 277.492188 76.394531 278.097656 C 73.277344 279.261719 73.457031 279.261719 77.695312 278.039062 C 87.335938 275.285156 104.984375 269.566406 115.730469 265.71875 C 118.179688 264.847656 121.589844 263.636719 123.296875 263.03125 C 125.019531 262.4375 128.351562 261.234375 130.710938 260.390625 C 133.078125 259.527344 136.90625 258.171875 139.238281 257.367188 C 141.574219 256.558594 145.949219 255.007812 148.960938 253.9375 C 154.269531 252.054688 160.234375 250 167.464844 247.582031 C 169.375 246.957031 170.972656 246.378906 171.007812 246.320312 C 171.058594 246.210938 166.855469 247.257812 165.902344 247.582031 C 165.636719 247.683594 165.394531 247.683594 165.375 247.609375 C 165.355469 247.53125 165.460938 247.453125 165.613281 247.414062 C 165.859375 247.363281 168.746094 246.425781 171.023438 245.652344 C 171.558594 245.472656 173.144531 244.96875 174.542969 244.542969 C 175.953125 244.113281 177.769531 243.558594 178.59375 243.289062 C 179.417969 243.035156 181.683594 242.34375 183.628906 241.773438 C 185.570312 241.203125 187.566406 240.585938 188.058594 240.421875 C 188.550781 240.257812 191.089844 239.492188 193.699219 238.742188 C 196.308594 237.992188 199.292969 237.125 200.324219 236.796875 C 201.359375 236.472656 205.402344 235.320312 209.300781 234.222656 C 213.210938 233.121094 217.238281 231.957031 218.273438 231.648438 C 227.703125 228.769531 295.304688 210.496094 304.914062 208.222656 C 308.320312 207.417969 313.242188 206.257812 315.839844 205.65625 C 321.570312 204.296875 328.585938 202.539062 328.242188 202.535156 C 328.097656 202.539062 326.871094 202.742188 325.523438 202.988281 L 323.046875 203.445312 L 325.308594 202.800781 C 326.558594 202.433594 327.691406 202.046875 327.835938 201.929688 C 328.050781 201.757812 328.011719 201.734375 327.632812 201.886719 C 327.367188 201.988281 327.132812 202.019531 327.109375 201.945312 C 327.09375 201.882812 327.503906 201.710938 328.03125 201.566406 C 328.625 201.40625 328.914062 201.394531 328.796875 201.507812 C 328.699219 201.632812 328.871094 201.601562 329.269531 201.445312 C 330.265625 201.046875 341.5 199.082031 345.871094 198.542969 C 346.5 198.453125 346.828125 198.347656 346.972656 198.164062 C 347.097656 198.015625 347.402344 197.886719 347.71875 197.851562 C 348.066406 197.820312 348.242188 197.742188 348.207031 197.621094 C 348.183594 197.53125 348.011719 197.496094 347.8125 197.546875 C 347.617188 197.601562 347.300781 197.570312 347.101562 197.496094 C 346.757812 197.359375 346.753906 197.347656 347.078125 197.160156 C 347.496094 196.902344 347.414062 196.730469 346.886719 196.757812 C 341.3125 197.054688 318.597656 200.984375 293.503906 205.976562 C 290.882812 206.5 287.023438 207.246094 284.933594 207.632812 C 282.84375 208.015625 279.640625 208.613281 277.820312 208.976562 C 275.996094 209.320312 273.277344 209.839844 271.789062 210.109375 C 270.300781 210.378906 267.351562 210.945312 265.226562 211.386719 C 263.117188 211.824219 259.265625 212.597656 256.675781 213.117188 C 244.648438 215.523438 239.792969 216.617188 225.414062 220.125 C 222.941406 220.722656 220.730469 221.253906 220.496094 221.300781 C 220.25 221.351562 218.761719 221.734375 217.167969 222.148438 C 215.421875 222.601562 214.292969 222.820312 214.332031 222.730469 C 214.355469 222.625 214.246094 222.589844 214.117188 222.640625 C 212.921875 222.980469 211.0625 223.382812 210.152344 223.496094 C 208.78125 223.652344 189.703125 228.71875 176.9375 232.296875 Z M 160.984375 243.25 C 160.941406 243.324219 159.933594 243.691406 158.734375 244.066406 C 157.539062 244.449219 156.300781 244.863281 155.976562 244.984375 C 155.652344 245.105469 154.445312 245.511719 153.289062 245.871094 C 152.136719 246.230469 150.867188 246.652344 150.453125 246.796875 C 150.054688 246.949219 149.039062 247.289062 148.21875 247.558594 C 147.398438 247.828125 146.488281 248.136719 146.214844 248.257812 C 145.933594 248.367188 144.96875 248.707031 144.058594 249 C 143.164062 249.308594 142.226562 249.625 141.976562 249.722656 C 141.742188 249.820312 140.894531 250.113281 140.125 250.382812 C 138.753906 250.851562 137.96875 251.125 135.960938 251.828125 C 135.425781 252.003906 134.398438 252.363281 133.65625 252.613281 C 131.777344 253.246094 130.199219 253.785156 129.417969 254.074219 C 128.648438 254.363281 125.609375 255.441406 123.78125 256.078125 C 123.082031 256.316406 122.222656 256.628906 121.851562 256.757812 C 121.484375 256.890625 120.625 257.203125 119.925781 257.441406 C 119.222656 257.675781 118.285156 257.996094 117.84375 258.164062 C 117.398438 258.316406 116.492188 258.640625 115.839844 258.863281 C 114.1875 259.4375 113.148438 259.796875 109.898438 260.949219 C 106.21875 262.246094 101.117188 263.992188 99.042969 264.679688 C 98.144531 264.96875 96.863281 265.394531 96.203125 265.605469 C 95.550781 265.832031 94.550781 266.164062 93.972656 266.367188 C 91.199219 267.292969 88.753906 268.046875 88.792969 267.957031 C 88.859375 267.839844 89.964844 267.414062 91.886719 266.765625 C 92.585938 266.53125 93.386719 266.25 93.664062 266.125 C 93.941406 266.019531 94.742188 265.722656 95.441406 265.484375 C 97.820312 264.667969 98.636719 264.382812 99.449219 264.082031 C 99.894531 263.914062 103.148438 262.796875 106.65625 261.578125 C 110.183594 260.367188 114.355469 258.90625 115.945312 258.347656 C 124.136719 255.464844 134.617188 251.832031 143.21875 248.902344 C 143.800781 248.714844 144.964844 248.320312 145.828125 248.039062 C 146.695312 247.757812 148.550781 247.160156 149.933594 246.691406 C 153.175781 245.625 154.921875 245.058594 157.632812 244.199219 C 158.832031 243.828125 159.816406 243.496094 159.828125 243.476562 C 159.898438 243.378906 161.054688 243.148438 160.984375 243.25 Z M 237.441406 223.164062 C 246.742188 220.839844 249.804688 220.082031 260.992188 217.398438 C 274.03125 214.28125 278.824219 213.1875 280.753906 212.929688 C 281.410156 212.835938 281.476562 212.847656 281.1875 213.039062 C 280.992188 213.160156 280.929688 213.222656 281.039062 213.210938 C 281.132812 213.203125 281.246094 213.253906 281.265625 213.328125 C 281.316406 213.511719 281.617188 213.429688 230.414062 227.246094 C 209.371094 232.917969 191.023438 237.917969 189.617188 238.359375 C 187.542969 239 175.15625 242.410156 174.050781 242.660156 C 173.484375 242.78125 173.898438 242.457031 174.621094 242.230469 C 177.308594 241.359375 179.136719 240.789062 181.691406 240.003906 C 183.296875 239.523438 184.828125 239.046875 185.0625 238.953125 C 185.3125 238.851562 186.0625 238.617188 186.742188 238.433594 C 187.785156 238.136719 187.957031 238.058594 187.84375 237.878906 C 187.742188 237.742188 187.785156 237.652344 187.949219 237.605469 C 188.117188 237.5625 188.199219 237.621094 188.179688 237.789062 C 188.167969 237.988281 188.316406 237.996094 188.964844 237.820312 C 189.679688 237.628906 189.789062 237.550781 189.796875 237.222656 L 189.8125 236.863281 L 190.019531 237.210938 L 190.230469 237.5625 L 190.226562 237.191406 C 190.226562 236.882812 190.316406 236.792969 190.824219 236.6875 C 191.449219 236.535156 196.472656 235.039062 198.832031 234.273438 C 199.613281 234.03125 202.5625 233.15625 205.378906 232.335938 C 208.199219 231.511719 210.773438 230.753906 211.101562 230.652344 C 211.429688 230.546875 213.285156 230.015625 215.222656 229.476562 C 217.253906 228.933594 218.71875 228.457031 218.695312 228.382812 C 218.671875 228.289062 215.472656 229.085938 210.742188 230.339844 C 206.394531 231.511719 202.789062 232.429688 202.738281 232.414062 C 202.578125 232.308594 229.277344 225.195312 237.441406 223.164062 Z M 189.101562 237.363281 C 189.113281 237.40625 189.074219 237.5 188.996094 237.570312 C 188.933594 237.636719 188.847656 237.625 188.828125 237.550781 C 188.804688 237.457031 188.859375 237.363281 188.933594 237.339844 C 189.027344 237.316406 189.09375 237.332031 189.101562 237.363281 Z M 152.160156 247.832031 C 152.0625 247.890625 151.847656 247.945312 151.703125 247.953125 C 151.542969 247.949219 151.625 247.894531 151.867188 247.828125 C 152.125 247.757812 152.238281 247.761719 152.160156 247.832031 Z M 149.226562 248.765625 C 149.191406 248.824219 149.0625 248.875 148.941406 248.859375 C 148.808594 248.84375 148.84375 248.789062 149.007812 248.742188 C 149.171875 248.683594 149.273438 248.703125 149.226562 248.765625 Z M 281.871094 213.164062 C 281.890625 213.242188 281.851562 213.332031 281.777344 213.355469 C 281.683594 213.378906 281.558594 213.332031 281.492188 213.269531 C 281.421875 213.1875 281.46875 213.113281 281.589844 213.078125 C 281.726562 213.042969 281.847656 213.074219 281.871094 213.164062 Z M 147.621094 249.375 C 147.476562 249.449219 147.234375 249.511719 147.089844 249.519531 C 146.925781 249.515625 147.039062 249.453125 147.328125 249.375 C 147.613281 249.296875 147.742188 249.292969 147.621094 249.375 Z M 145.464844 250.117188 C 145.273438 250.203125 144.941406 250.292969 144.707031 250.324219 C 144.453125 250.359375 144.613281 250.28125 145.023438 250.171875 C 145.445312 250.058594 145.636719 250.039062 145.464844 250.117188 Z M 173.53125 242.832031 C 173.386719 243.082031 173.148438 242.984375 173.238281 242.714844 C 173.257812 242.613281 173.371094 242.550781 173.476562 242.570312 C 173.582031 242.605469 173.609375 242.699219 173.53125 242.832031 Z M 143.230469 250.882812 C 143.042969 250.964844 142.707031 251.054688 142.472656 251.085938 C 142.222656 251.121094 142.382812 251.046875 142.789062 250.933594 C 143.214844 250.820312 143.40625 250.800781 143.230469 250.882812 Z M 307.027344 206.839844 C 306.929688 206.898438 306.75 206.949219 306.648438 206.941406 C 306.53125 206.925781 306.597656 206.875 306.8125 206.816406 C 307.023438 206.761719 307.105469 206.769531 307.027344 206.839844 Z M 321.421875 202.96875 C 321.324219 203.027344 321.144531 203.078125 321.042969 203.070312 C 320.925781 203.054688 320.992188 203.003906 321.207031 202.949219 C 321.417969 202.890625 321.503906 202.898438 321.421875 202.96875 Z M 140.921875 251.664062 C 140.6875 251.761719 140.324219 251.859375 140.089844 251.886719 C 139.839844 251.921875 140.027344 251.839844 140.484375 251.71875 C 140.9375 251.597656 141.140625 251.574219 140.921875 251.664062 Z M 310.707031 206.015625 C 310.441406 206.117188 309.988281 206.238281 309.722656 206.277344 C 309.441406 206.320312 309.644531 206.234375 310.191406 206.089844 C 310.734375 205.941406 310.957031 205.914062 310.707031 206.015625 Z M 324.039062 202.429688 C 323.851562 202.511719 323.519531 202.601562 323.28125 202.632812 C 323.03125 202.667969 323.191406 202.59375 323.597656 202.484375 C 324.023438 202.367188 324.214844 202.351562 324.039062 202.429688 Z M 138.3125 252.527344 C 138.214844 252.585938 138.03125 252.636719 137.933594 252.628906 C 137.816406 252.613281 137.882812 252.5625 138.09375 252.507812 C 138.308594 252.449219 138.390625 252.460938 138.3125 252.527344 Z M 138.976562 252.335938 C 138.941406 252.390625 138.808594 252.445312 138.691406 252.425781 C 138.558594 252.414062 138.589844 252.355469 138.757812 252.3125 C 138.921875 252.25 139.023438 252.273438 138.976562 252.335938 Z M 313.550781 205.414062 C 313.332031 205.503906 312.921875 205.613281 312.640625 205.65625 C 312.359375 205.699219 312.535156 205.621094 313.035156 205.484375 C 313.535156 205.351562 313.769531 205.320312 313.550781 205.414062 Z M 326.203125 202.011719 C 326.011719 202.09375 325.679688 202.183594 325.445312 202.214844 C 325.195312 202.25 325.351562 202.171875 325.761719 202.0625 C 326.1875 201.949219 326.375 201.929688 326.203125 202.011719 Z M 316.394531 204.808594 C 316.203125 204.894531 315.871094 204.984375 315.636719 205.011719 C 315.386719 205.046875 315.542969 204.972656 315.953125 204.863281 C 316.378906 204.75 316.566406 204.730469 316.394531 204.808594 Z M 318.859375 204.308594 C 318.671875 204.394531 318.367188 204.472656 318.175781 204.492188 C 317.972656 204.515625 318.117188 204.445312 318.496094 204.34375 C 318.871094 204.242188 319.03125 204.230469 318.859375 204.308594 Z M 321.628906 203.726562 C 321.4375 203.8125 321.105469 203.902344 320.871094 203.929688 C 320.617188 203.964844 320.777344 203.890625 321.1875 203.78125 C 321.609375 203.667969 321.800781 203.648438 321.628906 203.726562 Z M 88.199219 268.164062 C 88.222656 268.253906 87.886719 268.394531 87.445312 268.496094 L 86.636719 268.699219 L 87.289062 268.410156 C 87.652344 268.246094 87.984375 268.089844 88.0625 268.070312 C 88.117188 268.039062 88.175781 268.074219 88.199219 268.164062 Z M 88.628906 267.949219 C 88.640625 267.996094 88.601562 268.089844 88.523438 268.160156 C 88.460938 268.222656 88.375 268.214844 88.355469 268.136719 C 88.332031 268.046875 88.386719 267.953125 88.460938 267.929688 C 88.550781 267.90625 88.621094 267.921875 88.628906 267.949219 Z M 86.550781 268.671875 C 86.5625 268.71875 86.519531 268.808594 86.441406 268.878906 C 86.378906 268.945312 86.292969 268.9375 86.273438 268.859375 C 86.25 268.769531 86.304688 268.671875 86.382812 268.652344 C 86.472656 268.628906 86.539062 268.640625 86.550781 268.671875 Z M 165.0625 247.773438 C 164.917969 247.84375 164.675781 247.910156 164.53125 247.917969 C 164.367188 247.910156 164.480469 247.847656 164.769531 247.773438 C 165.054688 247.695312 165.183594 247.691406 165.0625 247.773438 Z M 68.757812 276.414062 C 68.726562 276.472656 68.59375 276.523438 68.476562 276.503906 C 68.339844 276.492188 68.375 276.433594 68.542969 276.390625 C 68.703125 276.332031 68.808594 276.351562 68.757812 276.414062 Z M 69.363281 276.25 C 69.332031 276.308594 69.199219 276.359375 69.082031 276.34375 C 68.949219 276.328125 68.980469 276.273438 69.148438 276.226562 C 69.308594 276.167969 69.414062 276.1875 69.363281 276.25 Z M 67.136719 277.027344 C 66.84375 277.140625 66.355469 277.269531 66.078125 277.3125 C 65.8125 277.351562 66.058594 277.253906 66.636719 277.097656 C 67.226562 276.9375 67.445312 276.910156 67.136719 277.027344 Z M 62.867188 278.484375 C 56.574219 280.710938 49.652344 283.417969 49.5 283.703125 C 49.46875 283.777344 50.242188 283.570312 51.226562 283.238281 C 52.214844 282.925781 53.660156 282.4375 54.441406 282.195312 C 55.214844 281.9375 56.242188 281.582031 56.714844 281.40625 C 57.394531 281.160156 57.570312 281.144531 57.617188 281.324219 C 57.652344 281.445312 57.597656 281.609375 57.515625 281.679688 C 57.339844 281.804688 58.777344 281.355469 61.066406 280.5625 C 61.71875 280.320312 62.234375 280.183594 62.199219 280.238281 C 62.132812 280.355469 55.335938 282.816406 53.835938 283.269531 C 53.429688 283.394531 52.824219 283.621094 52.511719 283.789062 C 52.195312 283.9375 51.296875 284.292969 50.523438 284.550781 C 48.875 285.121094 48.757812 285.171875 47.132812 285.835938 C 46.445312 286.117188 45.082031 286.613281 44.09375 286.929688 C 43.105469 287.242188 41.195312 287.871094 39.839844 288.332031 C 37.660156 289.097656 37.261719 289.1875 36.136719 289.230469 C 35.1875 289.273438 34.796875 289.214844 34.558594 288.988281 C 33.898438 288.402344 34.335938 288.15625 37.820312 287.152344 C 39.234375 286.738281 41.8125 285.867188 43.554688 285.222656 C 46.242188 284.222656 55.566406 280.886719 61.636719 278.75 C 62.570312 278.417969 63.78125 278.027344 64.328125 277.878906 C 64.875 277.734375 64.214844 278.007812 62.867188 278.484375 Z M 35.773438 286.5 C 35.804688 286.605469 34.929688 287.035156 34.414062 287.175781 C 34.121094 287.238281 34.121094 287.238281 34.335938 286.953125 C 34.550781 286.667969 35.722656 286.304688 35.773438 286.5 Z M 58.519531 281.050781 C 58.539062 281.125 58.445312 281.199219 58.324219 281.234375 C 58.203125 281.265625 58.050781 281.308594 57.996094 281.339844 C 57.933594 281.355469 57.84375 281.3125 57.792969 281.246094 C 57.738281 281.164062 57.875 281.078125 58.105469 281.03125 C 58.320312 280.976562 58.503906 280.992188 58.519531 281.050781 Z M 62.773438 280.132812 C 62.738281 280.191406 62.609375 280.246094 62.488281 280.226562 C 62.355469 280.214844 62.390625 280.15625 62.554688 280.113281 C 62.71875 280.050781 62.820312 280.074219 62.773438 280.132812 Z M 62.773438 280.132812 " fill-opacity="1" fill-rule="nonzero"/></g></g></g><g clip-path="url(#c820b9bf32)"><g clip-path="url(#d5fb4b50fb)"><g clip-path="url(#6621f4bc6d)"><path fill="#202020" d="M 218.851562 228.355469 C 218.867188 228.417969 218.976562 228.453125 219.097656 228.417969 C 219.21875 228.386719 219.339844 228.289062 219.367188 228.21875 C 219.382812 228.148438 219.273438 228.113281 219.109375 228.15625 C 218.957031 228.199219 218.835938 228.292969 218.851562 228.355469 Z M 218.851562 228.355469 " fill-opacity="1" fill-rule="nonzero"/></g></g></g><g clip-path="url(#685360b263)"><g clip-path="url(#59996d2eae)"><g clip-path="url(#f2060f3af6)"><path fill="#202020" d="M 56.585938 282.027344 C 56.519531 282.253906 56.714844 282.203125 56.964844 281.921875 C 57.128906 281.75 57.121094 281.71875 56.894531 281.78125 C 56.757812 281.816406 56.609375 281.921875 56.585938 282.027344 Z M 56.585938 282.027344 " fill-opacity="1" fill-rule="nonzero"/></g></g></g><g clip-path="url(#984574165b)"><g clip-path="url(#d4b3cd7f78)"><g clip-path="url(#34eae1949b)"><path fill="#202020" d="M 328.222656 201.855469 C 328.246094 201.933594 328.328125 201.941406 328.390625 201.875 C 328.472656 201.804688 328.511719 201.714844 328.5 201.667969 C 328.492188 201.636719 328.421875 201.625 328.332031 201.648438 C 328.253906 201.667969 328.199219 201.765625 328.222656 201.855469 Z M 328.222656 201.855469 " fill-opacity="1" fill-rule="nonzero"/></g></g></g></svg>